<svg width="20" height="20" viewBox="0 0 20 20" fill="none" xmlns="http://www.w3.org/2000/svg">
<path fill-rule="evenodd" clip-rule="evenodd" d="M10.4405 9.37471C11.3918 9.37912 12.3107 9.72485 13.0293 10.3483C13.0309 10.3497 13.0326 10.3509 13.0342 10.3522C13.3335 10.057 13.6868 9.81803 14.0772 9.6501C14.7078 9.37889 15.4058 9.30481 16.0791 9.43818C16.7527 9.57165 17.37 9.90675 17.8496 10.3981C18.3292 10.8895 18.6486 11.5145 18.7657 12.1911L18.9483 13.2233C18.9629 13.3042 18.9611 13.3872 18.9434 13.4675C18.9257 13.5477 18.8921 13.6239 18.8448 13.6911C18.7159 13.8759 17.9465 14.7917 15.417 14.7917C15.1577 14.7952 14.8985 14.7836 14.6407 14.7595L14.7823 15.7448C14.7957 15.8409 14.7867 15.939 14.7559 16.031C14.7251 16.1229 14.6731 16.2065 14.6045 16.2751C14.4382 16.4455 13.4156 17.2917 10 17.2917C6.58337 17.2917 5.56081 16.4451 5.39164 16.2751C5.32306 16.2065 5.27107 16.1229 5.24027 16.031C5.20951 15.939 5.20047 15.8408 5.21391 15.7448L5.35453 14.7595C5.09856 14.7832 4.84148 14.7951 4.58402 14.7917C2.05421 14.7917 1.28411 13.8759 1.15531 13.6921C1.108 13.6249 1.07442 13.5487 1.05668 13.4685C1.03894 13.3882 1.03722 13.3052 1.0518 13.2243L1.23539 12.1901C1.35294 11.5139 1.67273 10.8891 2.15238 10.3981C2.63194 9.90735 3.2488 9.57344 3.92191 9.44014C4.59525 9.30688 5.29334 9.38079 5.92387 9.65205C6.31307 9.81949 6.66514 10.0572 6.96391 10.3513C6.96507 10.3503 6.96664 10.3494 6.96781 10.3483C7.68637 9.72495 8.60443 9.37913 9.5557 9.37471H10.4405ZM9.55766 10.6247C8.90662 10.6275 8.27803 10.8642 7.78617 11.2907C7.29439 11.7172 6.97194 12.3059 6.87699 12.9499L6.72953 13.9802C6.73197 14.0261 6.73141 14.0723 6.72367 14.1179C6.71799 14.1512 6.70726 14.1837 6.69633 14.2155L6.5098 15.5202C7.6245 15.9338 8.81314 16.1112 10 16.0417C11.1872 16.1115 12.3762 15.9333 13.4903 15.5173L13.3037 14.2126C13.2933 14.1816 13.2829 14.1503 13.2774 14.1179C13.2696 14.0719 13.267 14.0255 13.2696 13.9792L13.1231 12.9499C13.0281 12.3059 12.7057 11.7172 12.2139 11.2907C11.722 10.8641 11.0935 10.6275 10.4424 10.6247H9.55766ZM5.42777 10.8015C5.02904 10.6308 4.58749 10.5848 4.16215 10.6696C3.73675 10.7545 3.34671 10.9664 3.04398 11.2771C2.74138 11.5876 2.53972 11.9826 2.46586 12.4099L2.34476 13.0964C3.03804 13.4418 3.81135 13.5958 4.58402 13.5417C4.90315 13.5466 5.2216 13.5241 5.53715 13.4792L5.63871 12.7731C5.71508 12.2545 5.8931 11.7605 6.15726 11.3171C5.95365 11.0972 5.70589 10.9206 5.42777 10.8015ZM15.417 10.6247C15.0549 10.6232 14.698 10.7145 14.3809 10.8894C14.1774 11.0016 13.9936 11.1459 13.8379 11.3161C14.1025 11.7599 14.281 12.254 14.3575 12.7731L14.458 13.4782C14.7755 13.5237 15.096 13.5466 15.417 13.5417C16.1904 13.5957 16.9643 13.4401 17.6563 13.0905L17.5352 12.4089C17.4491 11.9097 17.1893 11.4569 16.8018 11.1306C16.4142 10.8041 15.9237 10.6247 15.417 10.6247ZM4.13676 4.41963C4.58123 4.33126 5.04229 4.37609 5.46098 4.54951C5.87952 4.72296 6.23756 5.01657 6.4893 5.39326C6.74108 5.77009 6.87501 6.2135 6.87504 6.6667C6.8746 7.27435 6.63284 7.85714 6.20316 8.28682C5.77362 8.71627 5.19142 8.95812 4.58402 8.95869C4.13078 8.95869 3.68744 8.82378 3.31059 8.57197C2.93372 8.32016 2.63931 7.9624 2.46586 7.54365C2.29251 7.12499 2.24757 6.66387 2.33598 6.21943C2.42443 5.7751 2.64261 5.36697 2.96293 5.04658C3.28342 4.72609 3.69222 4.50805 4.13676 4.41963ZM9.39066 2.76826C9.99674 2.64778 10.6254 2.7105 11.1963 2.94697C11.7671 3.18352 12.2554 3.58361 12.5987 4.09736C12.942 4.61126 13.125 5.21564 13.125 5.83369C13.1241 6.66221 12.7949 7.45682 12.209 8.04268C11.6232 8.62853 10.8286 8.95781 10 8.95869C9.38198 8.95869 8.77761 8.77569 8.26371 8.43233C7.74996 8.08905 7.34987 7.60078 7.11332 7.02998C6.87685 6.45908 6.81413 5.83039 6.93461 5.22432C7.05519 4.61813 7.35304 4.06077 7.79008 3.62373C8.22712 3.18669 8.78447 2.88884 9.39066 2.76826ZM14.9698 4.41963C15.4143 4.33122 15.8753 4.37607 16.294 4.54951C16.7126 4.72294 17.0705 5.01656 17.3223 5.39326C17.5741 5.77009 17.708 6.2135 17.708 6.6667C17.7076 7.27424 17.4667 7.85716 17.0371 8.28682C16.6076 8.71641 16.0246 8.95816 15.417 8.95869C14.9638 8.95869 14.5205 8.82379 14.1436 8.57197C13.7668 8.32017 13.4733 7.96237 13.2998 7.54365C13.1264 7.12491 13.0806 6.66397 13.169 6.21943C13.2574 5.77513 13.4756 5.36697 13.7959 5.04658C14.1164 4.72609 14.5252 4.50805 14.9698 4.41963ZM4.58402 5.62471C4.37807 5.62471 4.17618 5.68611 4.00492 5.80049C3.83362 5.91495 3.69997 6.07792 3.62113 6.26826C3.54235 6.4585 3.52145 6.66787 3.56156 6.86983C3.60173 7.07174 3.70121 7.2574 3.84672 7.40303C3.99229 7.5486 4.17803 7.64794 4.37992 7.68818C4.58198 7.72838 4.79212 7.70843 4.98246 7.62959C5.17262 7.5508 5.33483 7.4169 5.44926 7.2458C5.56372 7.0745 5.62504 6.87272 5.62504 6.6667C5.62456 6.39062 5.5146 6.12559 5.31937 5.93037C5.12426 5.73543 4.85983 5.62528 4.58402 5.62471ZM10 3.95869C9.6292 3.95869 9.26639 4.06907 8.95805 4.2751C8.64994 4.48109 8.40948 4.77352 8.26762 5.11592C8.1257 5.45853 8.08882 5.83619 8.16117 6.1999C8.23358 6.56345 8.41175 6.89775 8.67387 7.15986C8.93599 7.42198 9.27028 7.60016 9.63383 7.67256C9.99754 7.74491 10.3752 7.70803 10.7178 7.56611C11.0602 7.42425 11.3526 7.18378 11.5586 6.87568C11.7647 6.56735 11.875 6.20452 11.875 5.83369C11.8746 5.33655 11.6768 4.86003 11.3252 4.5085C10.9737 4.15696 10.4972 3.95914 10 3.95869ZM15.417 5.62471C15.211 5.62471 15.0092 5.68606 14.8379 5.80049C14.6666 5.91495 14.533 6.07792 14.4541 6.26826C14.3754 6.45847 14.3545 6.6679 14.3946 6.86983C14.4347 7.07171 14.5343 7.25741 14.6797 7.40303C14.8254 7.54871 15.0118 7.64799 15.2139 7.68818C15.4159 7.72828 15.6252 7.70838 15.8155 7.62959C16.0058 7.55075 16.1688 7.4171 16.2832 7.2458C16.3977 7.07451 16.458 6.87271 16.458 6.6667C16.4576 6.39062 16.3476 6.12559 16.1524 5.93037C15.9572 5.73544 15.6929 5.62524 15.417 5.62471Z" fill="white" fill-opacity="0.8"/>
</svg>
