<svg width="20" height="20" viewBox="0 0 20 20" fill="none" xmlns="http://www.w3.org/2000/svg">
<g opacity="0.3" clip-path="url(#clip0_7679_2805)">
<path d="M10 0.917969C10.4228 0.917969 10.8376 1.03043 11.2041 1.24121L11.2051 1.24023L17.0391 4.57324L17.042 4.5752C17.4088 4.78704 17.7138 5.09228 17.9258 5.45898C18.1376 5.82557 18.2494 6.24167 18.25 6.66504V13.334C18.2495 13.7576 18.1377 14.1742 17.9258 14.541C17.7138 14.9077 17.4087 15.212 17.042 15.4238L17.0391 15.4258L11.207 18.7568L11.208 18.7578C10.8407 18.9698 10.4241 19.0811 10 19.0811C9.57594 19.0811 9.15927 18.9698 8.79199 18.7578V18.7568L2.96094 15.4258L2.95801 15.4238C2.59129 15.212 2.2862 14.9077 2.07422 14.541C1.86227 14.1743 1.75048 13.7576 1.75 13.334V6.66504L1.75488 6.50684C1.77954 6.13855 1.88886 5.7798 2.07422 5.45898C2.28624 5.09228 2.59121 4.78704 2.95801 4.5752L2.96094 4.57324L8.79492 1.24023V1.24121C9.16161 1.03016 9.57687 0.917969 10 0.917969ZM10 2.41797C9.8392 2.41797 9.68127 2.46067 9.54199 2.54102L9.53906 2.54199L3.70508 5.87598C3.56745 5.95619 3.45286 6.07109 3.37305 6.20898C3.29266 6.34805 3.25023 6.50637 3.25 6.66699V13.332L3.25781 13.4521C3.27359 13.5707 3.31282 13.6858 3.37305 13.79C3.45282 13.928 3.56743 14.0428 3.70508 14.123L9.53906 17.457L9.54199 17.458C9.68133 17.5384 9.83912 17.5811 10 17.5811C10.1609 17.5811 10.3187 17.5384 10.458 17.458L10.4609 17.457L16.2949 14.123C16.4326 14.0428 16.5472 13.928 16.627 13.79C16.7072 13.6512 16.7497 13.4934 16.75 13.333V6.66699C16.7498 6.50637 16.7073 6.34805 16.627 6.20898C16.5471 6.07109 16.4325 5.95619 16.2949 5.87598L10.4609 2.54199L10.458 2.54102C10.3187 2.46067 10.1608 2.41797 10 2.41797ZM10 5.91699C12.2549 5.91717 14.0838 7.7451 14.084 10C14.0838 12.2549 12.2549 14.0838 10 14.084C7.7451 14.0838 5.91717 12.2549 5.91699 10C5.91717 7.7451 7.7451 5.91717 10 5.91699ZM10 7.41699C8.57352 7.41717 7.41717 8.57352 7.41699 10C7.41717 11.4265 8.57352 12.5838 10 12.584C11.4265 12.5838 12.5838 11.4265 12.584 10C12.5838 8.57352 11.4265 7.41717 10 7.41699Z" fill="white" fill-opacity="0.8"/>
</g>
<defs>
<clipPath id="clip0_7679_2805">
<rect width="20" height="20" fill="white"/>
</clipPath>
</defs>
</svg>
