<svg width="16" height="16" viewBox="0 0 16 16" fill="none" xmlns="http://www.w3.org/2000/svg">
<path d="M7.25049 13.9019H3.50049C3.08725 13.9019 2.75049 13.5659 2.75049 13.1519V8.65187H7.25049V13.9019ZM13.2515 8.65187V13.1519C13.2515 13.5658 12.9154 13.9017 12.5015 13.9019H8.75146V8.65187H13.2515ZM9.09521 3.11085C9.68244 2.51987 10.7065 2.51837 11.2944 3.11085C11.8997 3.71908 11.8997 4.70868 11.2944 5.3169C11.1925 5.42031 11.0465 5.53575 10.8765 5.65187H13.2495C13.6633 5.65197 13.9994 5.98878 13.9995 6.40187V7.52687C13.9995 7.73379 13.8314 7.90175 13.6245 7.90187H8.74951V6.40187H7.24951V7.90187H2.37451C2.1676 7.90177 1.99951 7.7338 1.99951 7.52687V6.40187C1.99961 5.98877 2.33641 5.65196 2.74951 5.65187H5.12256C4.95246 5.53571 4.80633 5.42033 4.70361 5.3169C4.09988 4.70868 4.10011 3.71908 4.70459 3.11085C5.29182 2.51989 6.31583 2.51988 6.90381 3.11085C7.22871 3.43747 8.09051 4.76486 7.97217 5.65187H8.02686C7.90776 4.76484 8.76958 3.43744 9.09521 3.11085ZM5.8042 3.40187C5.58975 3.4019 5.38806 3.4862 5.23584 3.63917C4.92162 3.95566 4.92161 4.4721 5.23584 4.78858C5.55933 5.1141 6.54879 5.65187 7.06689 5.65187C7.17385 5.65181 7.20557 5.62745 7.20557 5.62745C7.38009 5.44641 6.87699 4.14758 6.37158 3.63917C6.21936 3.48632 6.01784 3.40187 5.8042 3.40187ZM10.7632 3.63917C10.4579 3.33243 9.9287 3.33393 9.62646 3.63917C9.12113 4.14777 8.61892 5.4465 8.79346 5.62745C8.7939 5.62852 8.82638 5.65187 8.93213 5.65187C9.4511 5.65158 10.4398 5.11401 10.7632 4.78858C11.0782 4.47211 11.0781 3.95566 10.7632 3.63917Z" fill="white"/>
</svg>
