<svg width="20" height="20" viewBox="0 0 20 20" fill="none" xmlns="http://www.w3.org/2000/svg">
<g opacity="0.3">
<path d="M10.4405 9.37474C11.3918 9.37915 12.3107 9.72488 13.0293 10.3484C13.0309 10.3497 13.0326 10.3509 13.0342 10.3523C13.3335 10.0571 13.6868 9.81806 14.0772 9.65013C14.7078 9.37892 15.4058 9.30484 16.0791 9.43822C16.7527 9.57168 17.37 9.90678 17.8496 10.3982C18.3292 10.8896 18.6486 11.5146 18.7657 12.1911L18.9483 13.2234C18.9629 13.3042 18.9611 13.3873 18.9434 13.4675C18.9257 13.5478 18.8921 13.6239 18.8448 13.6911C18.7159 13.876 17.9465 14.7917 15.417 14.7917C15.1577 14.7952 14.8985 14.7836 14.6407 14.7595L14.7823 15.7449C14.7957 15.8409 14.7867 15.939 14.7559 16.031C14.7251 16.123 14.6731 16.2065 14.6045 16.2751C14.4382 16.4455 13.4156 17.2917 10 17.2917C6.58337 17.2917 5.56081 16.4451 5.39164 16.2751C5.32306 16.2066 5.27107 16.123 5.24027 16.031C5.20951 15.9391 5.20047 15.8409 5.21391 15.7449L5.35453 14.7595C5.09856 14.7832 4.84148 14.7951 4.58402 14.7917C2.05421 14.7917 1.28411 13.876 1.15531 13.6921C1.108 13.6249 1.07442 13.5487 1.05668 13.4685C1.03894 13.3882 1.03722 13.3052 1.0518 13.2243L1.23539 12.1902C1.35294 11.5139 1.67273 10.8891 2.15238 10.3982C2.63194 9.90738 3.2488 9.57347 3.92191 9.44017C4.59525 9.30691 5.29334 9.38082 5.92387 9.65208C6.31307 9.81952 6.66514 10.0573 6.96391 10.3513C6.96507 10.3503 6.96664 10.3494 6.96781 10.3484C7.68637 9.72498 8.60443 9.37916 9.5557 9.37474H10.4405ZM9.55766 10.6247C8.90662 10.6276 8.27803 10.8642 7.78617 11.2908C7.29439 11.7173 6.97194 12.3059 6.87699 12.9499L6.72953 13.9802C6.73197 14.0262 6.73141 14.0723 6.72367 14.1179C6.71799 14.1512 6.70726 14.1837 6.69633 14.2156L6.5098 15.5202C7.6245 15.9338 8.81314 16.1112 10 16.0417C11.1872 16.1115 12.3762 15.9333 13.4903 15.5173L13.3037 14.2126C13.2933 14.1817 13.2829 14.1503 13.2774 14.1179C13.2696 14.072 13.267 14.0255 13.2696 13.9792L13.1231 12.9499C13.0281 12.3059 12.7057 11.7173 12.2139 11.2908C11.722 10.8642 11.0935 10.6276 10.4424 10.6247H9.55766ZM5.42777 10.8015C5.02904 10.6308 4.58749 10.5848 4.16215 10.6697C3.73675 10.7545 3.34671 10.9664 3.04398 11.2771C2.74138 11.5877 2.53972 11.9826 2.46586 12.4099L2.34476 13.0964C3.03804 13.4418 3.81135 13.5958 4.58402 13.5417C4.90315 13.5466 5.2216 13.5242 5.53715 13.4792L5.63871 12.7732C5.71508 12.2545 5.8931 11.7606 6.15726 11.3171C5.95365 11.0972 5.70589 10.9206 5.42777 10.8015ZM15.417 10.6247C15.0549 10.6232 14.698 10.7145 14.3809 10.8894C14.1774 11.0017 13.9936 11.1459 13.8379 11.3161C14.1025 11.7599 14.281 12.254 14.3575 12.7732L14.458 13.4783C14.7755 13.5237 15.096 13.5467 15.417 13.5417C16.1904 13.5957 16.9643 13.4402 17.6563 13.0906L17.5352 12.4089C17.4491 11.9097 17.1893 11.457 16.8018 11.1306C16.4142 10.8042 15.9237 10.6247 15.417 10.6247ZM4.13676 4.41966C4.58123 4.33129 5.04229 4.37612 5.46098 4.54954C5.87952 4.72299 6.23756 5.0166 6.4893 5.39329C6.74108 5.77012 6.87501 6.21353 6.87504 6.66673C6.8746 7.27438 6.63284 7.85717 6.20316 8.28685C5.77362 8.7163 5.19142 8.95815 4.58402 8.95872C4.13078 8.95872 3.68744 8.82381 3.31059 8.572C2.93372 8.32019 2.63931 7.96243 2.46586 7.54368C2.29251 7.12502 2.24757 6.6639 2.33598 6.21947C2.42443 5.77513 2.64261 5.36701 2.96293 5.04661C3.28342 4.72612 3.69222 4.50809 4.13676 4.41966ZM9.39066 2.76829C9.99674 2.64781 10.6254 2.71053 11.1963 2.947C11.7671 3.18356 12.2554 3.58364 12.5987 4.0974C12.942 4.61129 13.125 5.21567 13.125 5.83372C13.1241 6.66225 12.7949 7.45685 12.209 8.04271C11.6232 8.62856 10.8286 8.95784 10 8.95872C9.38198 8.95872 8.77761 8.77572 8.26371 8.43236C7.74996 8.08908 7.34987 7.60081 7.11332 7.03001C6.87685 6.45911 6.81413 5.83042 6.93461 5.22435C7.05519 4.61816 7.35304 4.0608 7.79008 3.62376C8.22712 3.18672 8.78447 2.88887 9.39066 2.76829ZM14.9698 4.41966C15.4143 4.33125 15.8753 4.3761 16.294 4.54954C16.7126 4.72298 17.0705 5.01659 17.3223 5.39329C17.5741 5.77012 17.708 6.21353 17.708 6.66673C17.7076 7.27427 17.4667 7.8572 17.0371 8.28685C16.6076 8.71645 16.0246 8.95819 15.417 8.95872C14.9638 8.95872 14.5205 8.82382 14.1436 8.572C13.7668 8.3202 13.4733 7.9624 13.2998 7.54368C13.1264 7.12494 13.0806 6.664 13.169 6.21947C13.2574 5.77516 13.4757 5.367 13.7959 5.04661C14.1164 4.72612 14.5252 4.50809 14.9698 4.41966ZM4.58402 5.62474C4.37807 5.62474 4.17618 5.68614 4.00492 5.80052C3.83362 5.91498 3.69997 6.07795 3.62113 6.26829C3.54235 6.45853 3.52145 6.6679 3.56156 6.86986C3.60173 7.07177 3.70121 7.25743 3.84672 7.40306C3.99229 7.54863 4.17803 7.64797 4.37992 7.68822C4.58198 7.72841 4.79212 7.70846 4.98246 7.62962C5.17262 7.55083 5.33483 7.41693 5.44926 7.24583C5.56372 7.07453 5.62504 6.87275 5.62504 6.66673C5.62456 6.39065 5.5146 6.12563 5.31937 5.9304C5.12426 5.73546 4.85983 5.62531 4.58402 5.62474ZM10 3.95872C9.6292 3.95872 9.26639 4.0691 8.95805 4.27513C8.64994 4.48112 8.40948 4.77355 8.26762 5.11595C8.1257 5.45856 8.08882 5.83622 8.16117 6.19993C8.23358 6.56348 8.41175 6.89778 8.67387 7.1599C8.93599 7.42201 9.27028 7.60019 9.63383 7.67259C9.99754 7.74494 10.3752 7.70806 10.7178 7.56615C11.0602 7.42429 11.3526 7.18382 11.5586 6.87572C11.7647 6.56738 11.875 6.20455 11.875 5.83372C11.8746 5.33658 11.6768 4.86006 11.3252 4.50853C10.9737 4.15699 10.4972 3.95917 10 3.95872ZM15.417 5.62474C15.211 5.62474 15.0092 5.68609 14.8379 5.80052C14.6666 5.91498 14.533 6.07795 14.4541 6.26829C14.3754 6.4585 14.3545 6.66793 14.3946 6.86986C14.4347 7.07174 14.5343 7.25744 14.6797 7.40306C14.8254 7.54874 15.0118 7.64802 15.2139 7.68822C15.4159 7.72831 15.6252 7.70841 15.8155 7.62962C16.0058 7.55078 16.1688 7.41713 16.2832 7.24583C16.3977 7.07454 16.458 6.87274 16.458 6.66673C16.4576 6.39065 16.3476 6.12563 16.1524 5.9304C15.9572 5.73547 15.6929 5.62527 15.417 5.62474Z" fill="white" fill-opacity="0.8"/>
</g>
</svg>
