<svg width="20" height="20" viewBox="0 0 20 20" fill="none" xmlns="http://www.w3.org/2000/svg">
<path fill-rule="evenodd" clip-rule="evenodd" d="M10.0008 3.54248C11.8987 3.54253 13.7537 4.10604 15.3309 5.16162C16.8096 6.15127 17.9817 7.53162 18.7186 9.146L18.8602 9.47217L18.868 9.49268C18.9895 9.81997 18.9894 10.18 18.868 10.5073C18.8654 10.5143 18.8631 10.5219 18.8602 10.5288C18.1366 12.2833 16.9081 13.7838 15.3309 14.8394C13.7538 15.8949 11.8986 16.4585 10.0008 16.4585C8.10314 16.4585 6.2479 15.8948 4.67077 14.8394C3.09361 13.7838 1.8651 12.2832 1.14147 10.5288C1.13863 10.5219 1.13527 10.5143 1.13268 10.5073C1.01134 10.18 1.01121 9.81992 1.13268 9.49268L1.14147 9.47217C1.86508 7.71762 3.09352 6.21725 4.67077 5.16162C6.24794 4.10614 8.10308 3.54248 10.0008 3.54248ZM10.0008 4.79248C8.35049 4.79248 6.73662 5.28274 5.3651 6.20068C3.99873 7.1153 2.93362 8.41367 2.30358 9.93213C2.28831 9.97616 2.28844 10.0238 2.30358 10.0679C2.93362 11.5866 3.99849 12.8856 5.3651 13.8003C6.73662 14.7182 8.35049 15.2085 10.0008 15.2085C11.6511 15.2085 13.2642 14.7181 14.6356 13.8003C16.0012 12.8863 17.0659 11.5889 17.6962 10.0718C17.7132 10.0253 17.7133 9.97463 17.6962 9.92822H17.6952C17.0649 8.41144 16.0009 7.11447 14.6356 6.20068C13.2642 5.28279 11.6511 4.79253 10.0008 4.79248ZM9.99987 6.87549C11.7258 6.87549 13.1249 8.2746 13.1249 10.0005C13.1246 11.7262 11.7256 13.1255 9.99987 13.1255C8.27429 13.1253 6.87513 11.726 6.87487 10.0005C6.87487 8.27471 8.27413 6.87566 9.99987 6.87549ZM9.99987 8.12549C8.96449 8.12566 8.12487 8.96506 8.12487 10.0005C8.12513 11.0357 8.96465 11.8753 9.99987 11.8755C11.0352 11.8755 11.8746 11.0358 11.8749 10.0005C11.8749 8.96495 11.0354 8.12549 9.99987 8.12549Z" fill="white"/>
</svg>
