<svg width="20" height="20" viewBox="0 0 20 20" fill="none" xmlns="http://www.w3.org/2000/svg">
<path d="M8.94364 4.23042C10.8848 3.99909 12.8483 4.40943 14.5344 5.39879C16.2204 6.38815 17.5363 7.90215 18.2811 9.70959C18.3506 9.89668 18.3506 10.1025 18.2811 10.2896C17.9749 11.0321 17.5702 11.73 17.0778 12.3646M11.7367 11.7984C11.2652 12.2538 10.6337 12.5057 9.97824 12.5001C9.32274 12.4944 8.69571 12.2314 8.23219 11.7679C7.76867 11.3044 7.50575 10.6774 7.50005 10.0219C7.49436 9.36638 7.74634 8.73487 8.20174 8.26337M14.5662 14.5823C13.4608 15.2372 12.2274 15.6465 10.9498 15.7827C9.67226 15.9188 8.38034 15.7786 7.16174 15.3714C5.94314 14.9643 4.82637 14.2998 3.88722 13.423C2.94807 12.5462 2.20851 11.4776 1.71871 10.2898C1.64926 10.1027 1.64926 9.89694 1.71871 9.70984C2.45757 7.91806 3.75761 6.41422 5.42371 5.42401M1.66663 1.66669L18.3333 18.3334" stroke="white" stroke-width="1.25" stroke-linecap="round" stroke-linejoin="round"/>
</svg>
