<svg width="130" height="45" viewBox="0 0 130 45" fill="none" xmlns="http://www.w3.org/2000/svg">
<path d="M38.08 37C38.0067 37 37.98 36.96 38 36.88L39.65 30.54C39.67 30.48 39.71 30.45 39.77 30.45H40.98C41.04 30.45 41.0833 30.48 41.11 30.54L42.76 36.88C42.78 36.96 42.7533 37 42.68 37H41.67C41.6167 37 41.58 36.97 41.56 36.91L40.65 32.86C40.5967 32.6333 40.5467 32.41 40.5 32.19C40.46 31.9633 40.42 31.74 40.38 31.52H40.36C40.32 31.74 40.2767 31.9633 40.23 32.19C40.19 32.41 40.1433 32.6333 40.09 32.86L39.18 36.91C39.1733 36.97 39.1367 37 39.07 37H38.08ZM39.3 35.6L39.49 34.66H41.23L41.43 35.6H39.3ZM43.4159 37C43.3425 37 43.3059 36.9633 43.3059 36.89V30.56C43.3059 30.4867 43.3392 30.45 43.4059 30.45H45.0059C45.8525 30.45 46.4859 30.6833 46.9059 31.15C47.3259 31.61 47.5359 32.3033 47.5359 33.23V34.01C47.5359 35.0167 47.3292 35.7667 46.9159 36.26C46.5025 36.7533 45.8759 37 45.0359 37H43.4159ZM44.4259 36H44.9759C45.4759 36 45.8392 35.84 46.0659 35.52C46.2992 35.1933 46.4159 34.6967 46.4159 34.03V33.22C46.4159 32.62 46.2992 32.1767 46.0659 31.89C45.8325 31.5967 45.4592 31.45 44.9459 31.45H44.4259V36ZM48.4816 37C48.415 37 48.3816 36.9633 48.3816 36.89L48.4816 30.56C48.4816 30.4867 48.515 30.45 48.5816 30.45H49.7716C49.8316 30.45 49.8716 30.48 49.8916 30.54L51.1016 34.06L52.2916 30.54C52.3116 30.48 52.3516 30.45 52.4116 30.45H53.6016C53.6683 30.45 53.7016 30.4867 53.7016 30.56L53.8116 36.89C53.8116 36.9633 53.775 37 53.7016 37H52.8016C52.735 37 52.7016 36.9633 52.7016 36.89L52.6516 33.7C52.645 33.4133 52.645 33.1367 52.6516 32.87C52.665 32.6033 52.6783 32.35 52.6916 32.11H52.6716C52.605 32.3367 52.5316 32.5667 52.4516 32.8C52.3716 33.0333 52.2883 33.26 52.2016 33.48L51.2216 36.13C51.2016 36.1833 51.165 36.21 51.1116 36.21H51.0616C51.0083 36.21 50.975 36.1833 50.9616 36.13L49.9716 33.46C49.885 33.24 49.8016 33.0167 49.7216 32.79C49.6483 32.5567 49.5783 32.33 49.5116 32.11H49.4916C49.5116 32.35 49.525 32.6033 49.5316 32.87C49.5383 33.13 49.5383 33.4033 49.5316 33.69L49.4816 36.89C49.4816 36.9633 49.4483 37 49.3816 37H48.4816ZM54.9 37C54.8333 37 54.8 36.9633 54.8 36.89V30.56C54.8 30.4867 54.8333 30.45 54.9 30.45H55.82C55.8867 30.45 55.92 30.4867 55.92 30.56V36.89C55.92 36.9633 55.8867 37 55.82 37H54.9ZM57.1068 37C57.0468 37 57.0168 36.9633 57.0168 36.89V30.56C57.0168 30.4867 57.0501 30.45 57.1168 30.45H58.3868C58.4468 30.45 58.4835 30.4767 58.4968 30.53L59.6668 33.79C59.7401 33.97 59.8101 34.1667 59.8768 34.38C59.9501 34.5867 60.0168 34.79 60.0768 34.99C60.1435 35.1833 60.1968 35.36 60.2368 35.52H60.2568C60.2435 35.34 60.2301 35.1333 60.2168 34.9C60.2101 34.6667 60.2035 34.43 60.1968 34.19C60.1901 33.95 60.1868 33.7433 60.1868 33.57V30.56C60.1868 30.4867 60.2201 30.45 60.2868 30.45H61.1568C61.2235 30.45 61.2568 30.4867 61.2568 30.56V36.89C61.2568 36.9633 61.2235 37 61.1568 37H59.9068C59.8535 37 59.8135 36.9733 59.7868 36.92L58.6268 33.75C58.5135 33.4433 58.4101 33.1367 58.3168 32.83C58.2235 32.5167 58.1368 32.2267 58.0568 31.96H58.0368C58.0501 32.1533 58.0601 32.3733 58.0668 32.62C58.0735 32.86 58.0768 33.1 58.0768 33.34C58.0835 33.58 58.0868 33.8 58.0868 34V36.89C58.0868 36.9633 58.0535 37 57.9868 37H57.1068ZM64.0211 37C63.9544 37 63.9211 36.9633 63.9211 36.89V30.56C63.9211 30.4867 63.9544 30.45 64.0211 30.45H65.5111C66.2311 30.45 66.7611 30.6267 67.1011 30.98C67.4411 31.3333 67.6111 31.8633 67.6111 32.57C67.6111 33.2567 67.4378 33.78 67.0911 34.14C66.7444 34.5 66.2244 34.68 65.5311 34.68H65.0411V36.89C65.0411 36.9633 65.0078 37 64.9411 37H64.0211ZM65.0411 33.69H65.5011C65.8411 33.69 66.0911 33.6 66.2511 33.42C66.4111 33.24 66.4911 32.9633 66.4911 32.59C66.4911 32.1833 66.4111 31.89 66.2511 31.71C66.0911 31.53 65.8444 31.44 65.5111 31.44H65.0411V33.69ZM67.621 37C67.5477 37 67.521 36.96 67.541 36.88L69.191 30.54C69.211 30.48 69.251 30.45 69.311 30.45H70.521C70.581 30.45 70.6243 30.48 70.651 30.54L72.301 36.88C72.321 36.96 72.2943 37 72.221 37H71.211C71.1577 37 71.121 36.97 71.101 36.91L70.191 32.86C70.1377 32.6333 70.0877 32.41 70.041 32.19C70.001 31.9633 69.961 31.74 69.921 31.52H69.901C69.861 31.74 69.8177 31.9633 69.771 32.19C69.731 32.41 69.6843 32.6333 69.631 32.86L68.721 36.91C68.7143 36.97 68.6777 37 68.611 37H67.621ZM68.841 35.6L69.031 34.66H70.771L70.971 35.6H68.841ZM72.9369 37C72.8769 37 72.8469 36.9633 72.8469 36.89V30.56C72.8469 30.4867 72.8802 30.45 72.9469 30.45H74.2169C74.2769 30.45 74.3135 30.4767 74.3269 30.53L75.4969 33.79C75.5702 33.97 75.6402 34.1667 75.7069 34.38C75.7802 34.5867 75.8469 34.79 75.9069 34.99C75.9735 35.1833 76.0269 35.36 76.0669 35.52H76.0869C76.0735 35.34 76.0602 35.1333 76.0469 34.9C76.0402 34.6667 76.0335 34.43 76.0269 34.19C76.0202 33.95 76.0169 33.7433 76.0169 33.57V30.56C76.0169 30.4867 76.0502 30.45 76.1169 30.45H76.9869C77.0535 30.45 77.0869 30.4867 77.0869 30.56V36.89C77.0869 36.9633 77.0535 37 76.9869 37H75.7369C75.6835 37 75.6435 36.9733 75.6169 36.92L74.4569 33.75C74.3435 33.4433 74.2402 33.1367 74.1469 32.83C74.0535 32.5167 73.9669 32.2267 73.8869 31.96H73.8669C73.8802 32.1533 73.8902 32.3733 73.8969 32.62C73.9035 32.86 73.9069 33.1 73.9069 33.34C73.9135 33.58 73.9169 33.8 73.9169 34V36.89C73.9169 36.9633 73.8835 37 73.8169 37H72.9369ZM78.2887 37C78.222 37 78.1887 36.9633 78.1887 36.89V30.56C78.1887 30.4867 78.222 30.45 78.2887 30.45H81.4187C81.4853 30.45 81.5187 30.4867 81.5187 30.56V31.35C81.5187 31.4233 81.4853 31.46 81.4187 31.46H79.3087V33.2H81.2387C81.3053 33.2 81.3387 33.2367 81.3387 33.31V34.05C81.3387 34.1233 81.3053 34.16 81.2387 34.16H79.3087V35.99H81.4187C81.4853 35.99 81.5187 36.0267 81.5187 36.1V36.89C81.5187 36.9633 81.4853 37 81.4187 37H78.2887ZM82.6246 37C82.5579 37 82.5246 36.9633 82.5246 36.89V30.56C82.5246 30.4867 82.5579 30.45 82.6246 30.45H83.5446C83.5779 30.45 83.6013 30.4633 83.6146 30.49C83.6346 30.51 83.6446 30.5333 83.6446 30.56V35.99H85.6446C85.7113 35.99 85.7446 36.0267 85.7446 36.1V36.89C85.7446 36.9633 85.7113 37 85.6446 37H82.6246Z" fill="white" fill-opacity="0.6"/>
<rect opacity="0.8" x="16.5201" y="7.98221" width="12.1435" height="16.3649" rx="2.03926" fill="#516EFF"/>
<rect x="12" y="11.0734" width="12.1435" height="16.3649" rx="2.03926" fill="#647EFF"/>
<path d="M108.88 24.6407C108.697 24.6407 108.605 24.5561 108.605 24.3868V11.0345C108.605 10.8652 108.69 10.7806 108.859 10.7806H112.52C114.339 10.7806 115.708 11.2814 116.625 12.283C117.542 13.2705 118 14.7517 118 16.7267V18.3349C118 20.4509 117.542 22.0309 116.625 23.0749C115.722 24.1188 114.375 24.6407 112.583 24.6407H108.88ZM111.377 22.2073H112.456C113.415 22.2073 114.114 21.8899 114.551 21.2551C115.002 20.6061 115.228 19.6327 115.228 18.3349V16.7267C115.228 15.5558 115.002 14.6812 114.551 14.1028C114.1 13.5103 113.38 13.214 112.393 13.214H111.377V22.2073Z" fill="white"/>
<path d="M98.569 24.6407C98.4139 24.6407 98.3363 24.5561 98.3363 24.3868V11.0345C98.3363 10.8652 98.4139 10.7806 98.569 10.7806H102.293C103.901 10.7806 105.072 11.1262 105.806 11.8174C106.554 12.4946 106.927 13.5385 106.927 14.9492C106.927 15.9367 106.758 16.7479 106.42 17.3827C106.081 18.0175 105.573 18.476 104.896 18.7581V18.7793L107.541 24.3233C107.64 24.5349 107.583 24.6407 107.372 24.6407H104.833C104.706 24.6407 104.614 24.5843 104.557 24.4715L102.251 19.2448H101.108V24.3868C101.108 24.5561 101.031 24.6407 100.876 24.6407H98.569ZM101.108 16.9595H102.272C102.935 16.9595 103.415 16.8113 103.711 16.5151C104.021 16.2047 104.177 15.718 104.177 15.055C104.177 14.392 104.028 13.9194 103.732 13.6373C103.436 13.3551 102.963 13.214 102.314 13.214H101.108V16.9595Z" fill="white"/>
<path d="M87.3445 24.6407C87.1611 24.6407 87.1047 24.549 87.1752 24.3656L90.6667 10.971C90.6949 10.8441 90.7796 10.7806 90.9206 10.7806H93.9043C94.0453 10.7806 94.137 10.8441 94.1793 10.971L97.692 24.3656C97.7343 24.549 97.6708 24.6407 97.5016 24.6407H94.9623C94.8353 24.6407 94.7507 24.5773 94.7084 24.4503L92.9732 16.1977C92.8603 15.718 92.7616 15.2384 92.677 14.7588C92.5923 14.2791 92.5077 13.8065 92.423 13.341H92.3807C92.2961 13.8065 92.2044 14.2791 92.1056 14.7588C92.021 15.2384 91.9363 15.718 91.8517 16.1977L90.0742 24.4291C90.0601 24.5702 89.9755 24.6407 89.8203 24.6407H87.3445ZM90.2223 21.8475L90.6455 19.6045H94.0947L94.5602 21.8475H90.2223Z" fill="white"/>
<path d="M82.1622 24.8099C80.6246 24.8099 79.4466 24.4008 78.6284 23.5826C77.8102 22.7644 77.4011 21.5089 77.4011 19.816V15.6263C77.4011 13.9616 77.8102 12.7132 78.6284 11.8808C79.4466 11.0344 80.6246 10.6112 82.1622 10.6112C83.2344 10.6112 84.1372 10.8158 84.8708 11.2249C85.6043 11.634 86.1404 12.2053 86.479 12.9389C86.8317 13.6724 86.9445 14.54 86.8175 15.5416C86.8034 15.725 86.7259 15.8167 86.5848 15.8167H84.2783C84.1231 15.8167 84.0526 15.725 84.0667 15.5416C84.1231 14.7516 83.9961 14.145 83.6858 13.7218C83.3754 13.2845 82.8746 13.0658 82.1834 13.0658C81.5063 13.0658 80.9984 13.2774 80.6598 13.7007C80.3354 14.1098 80.1731 14.7728 80.1731 15.6897V19.6891C80.1731 20.6343 80.3424 21.3184 80.681 21.7417C81.0196 22.1508 81.5204 22.3553 82.1834 22.3553C82.917 22.3553 83.4248 22.1296 83.707 21.6782C84.0032 21.2126 84.1302 20.606 84.0878 19.8584C84.0737 19.6891 84.1443 19.6044 84.2995 19.6044H86.5848C86.7259 19.6044 86.8105 19.6891 86.8387 19.8584C86.9798 21.3819 86.6412 22.5881 85.823 23.4768C85.0048 24.3656 83.7845 24.8099 82.1622 24.8099Z" fill="white"/>
<path d="M66.709 24.6407C66.5538 24.6407 66.4762 24.5561 66.4762 24.3868V11.0345C66.4762 10.8652 66.5538 10.7806 66.709 10.7806H69.7138C69.8408 10.7806 69.9254 10.837 69.9677 10.9499L72.2319 17.3192C72.3871 17.686 72.5352 18.088 72.6763 18.5253C72.8173 18.9627 72.9513 19.3929 73.0783 19.8161C73.2053 20.2252 73.3111 20.5991 73.3957 20.9376H73.4592C73.431 20.5568 73.3957 20.1124 73.3534 19.6045C73.3252 19.0826 73.304 18.5606 73.2899 18.0386C73.2758 17.5026 73.2688 17.0512 73.2688 16.6844V11.0345C73.2688 10.8652 73.3393 10.7806 73.4804 10.7806H75.6599C75.8151 10.7806 75.8927 10.8652 75.8927 11.0345V24.3868C75.8927 24.5561 75.8151 24.6407 75.6599 24.6407H72.6763C72.5634 24.6407 72.4788 24.5843 72.4223 24.4715L70.1582 18.2714C69.9324 17.6507 69.7208 17.0159 69.5233 16.367C69.34 15.718 69.1707 15.1255 69.0155 14.5895H68.952C68.9943 14.9845 69.0225 15.45 69.0366 15.9861C69.0508 16.5221 69.0649 17.0512 69.079 17.5731C69.1072 18.0951 69.1213 18.5606 69.1213 18.9697V24.3868C69.1213 24.5561 69.0367 24.6407 68.8674 24.6407H66.709Z" fill="white"/>
<path d="M62.2055 24.6407C62.0503 24.6407 61.9727 24.5561 61.9727 24.3868V11.0345C61.9727 10.8652 62.0503 10.7806 62.2055 10.7806H64.512C64.6672 10.7806 64.7447 10.8652 64.7447 11.0345V24.3868C64.7447 24.5561 64.6672 24.6407 64.512 24.6407H62.2055Z" fill="white"/>
<path d="M50.9811 24.6407C50.7977 24.6407 50.7412 24.549 50.8118 24.3656L54.3033 10.971C54.3315 10.8441 54.4161 10.7806 54.5572 10.7806H57.5408C57.6819 10.7806 57.7736 10.8441 57.8159 10.971L61.3286 24.3656C61.3709 24.549 61.3074 24.6407 61.1381 24.6407H58.5989C58.4719 24.6407 58.3872 24.5773 58.3449 24.4503L56.6098 16.1977C56.4969 15.718 56.3982 15.2384 56.3135 14.7588C56.2289 14.2791 56.1442 13.8065 56.0596 13.341H56.0173C55.9326 13.8065 55.8409 14.2791 55.7422 14.7588C55.6575 15.2384 55.5729 15.718 55.4883 16.1977L53.7108 24.4291C53.6967 24.5702 53.612 24.6407 53.4568 24.6407H50.9811ZM53.8589 21.8475L54.2821 19.6045H57.7313L58.1968 21.8475H53.8589Z" fill="white"/>
<path d="M38.564 24.6407C38.3947 24.6407 38.3101 24.5561 38.3101 24.3868L38.5428 11.0345C38.5428 10.8652 38.6204 10.7806 38.7756 10.7806H41.5688C41.7099 10.7806 41.8086 10.8441 41.865 10.971L44.3408 18.081L46.7954 10.971C46.8519 10.8441 46.9436 10.7806 47.0705 10.7806H49.8849C50.04 10.7806 50.1176 10.8652 50.1176 11.0345L50.3504 24.3868C50.3504 24.5561 50.2658 24.6407 50.0965 24.6407H47.8535C47.6983 24.6407 47.6207 24.5561 47.6207 24.3868L47.5361 18.5465C47.5219 17.8694 47.529 17.2345 47.5572 16.6421C47.5854 16.0496 47.6207 15.4923 47.663 14.9704H47.5995C47.4444 15.45 47.2751 15.9438 47.0917 16.4516C46.9224 16.9454 46.739 17.432 46.5415 17.9117L44.6159 22.8844C44.5736 23.0114 44.496 23.0749 44.3831 23.0749H44.2562C44.1433 23.0749 44.0728 23.0114 44.0446 22.8844L42.0978 17.8905C41.9003 17.4109 41.7169 16.9242 41.5476 16.4304C41.3783 15.9226 41.2161 15.4359 41.0609 14.9704H41.0186C41.0468 15.4782 41.075 16.0284 41.1032 16.6209C41.1315 17.2134 41.1385 17.8482 41.1244 18.5253L41.0398 24.3868C41.0398 24.5561 40.9622 24.6407 40.807 24.6407H38.564Z" fill="white"/>
</svg>
