<svg width="20" height="20" viewBox="0 0 20 20" fill="none" xmlns="http://www.w3.org/2000/svg">
<g opacity="0.3">
<path d="M15.833 1.04102C16.2197 1.04102 16.5908 1.19536 16.8643 1.46875C17.1375 1.74214 17.2909 2.11346 17.291 2.5V17.5C17.2909 17.8865 17.1375 18.2579 16.8643 18.5312C16.5908 18.8046 16.2197 18.959 15.833 18.959H5.41602C4.69795 18.9589 4.00879 18.6727 3.50098 18.165C2.99338 17.6573 2.70814 16.968 2.70801 16.25V3.75C2.70809 3.03194 2.9933 2.34277 3.50098 1.83496C4.00881 1.32713 4.69784 1.0411 5.41602 1.04102H15.833ZM5.41602 14.792C5.02936 14.7921 4.65818 14.9453 4.38477 15.2188C4.1115 15.4921 3.95809 15.8635 3.95801 16.25C3.95814 16.6364 4.11159 17.0079 4.38477 17.2812C4.65816 17.5545 5.02947 17.7089 5.41602 17.709H15.833C15.8881 17.709 15.9414 17.6864 15.9805 17.6475C16.0193 17.6085 16.0409 17.555 16.041 17.5V14.792H5.41602ZM5.41602 2.29199C5.02936 2.29208 4.65818 2.44534 4.38477 2.71875C4.1115 2.99214 3.95809 3.36346 3.95801 3.75V13.9707C4.3903 13.6942 4.89482 13.5421 5.41602 13.542H16.041V2.5C16.0409 2.44498 16.0193 2.39151 15.9805 2.35254C15.9414 2.31357 15.8882 2.29199 15.833 2.29199H5.41602ZM13.334 8.54199C13.679 8.54217 13.959 8.82192 13.959 9.16699C13.9587 9.51184 13.6789 9.79182 13.334 9.79199H6.66699C6.32198 9.79199 6.04226 9.51195 6.04199 9.16699C6.04199 8.82181 6.32181 8.54199 6.66699 8.54199H13.334ZM11.667 5.20898C12.0122 5.20898 12.292 5.48881 12.292 5.83398C12.2917 6.17894 12.012 6.45898 11.667 6.45898H6.66699C6.32198 6.45898 6.04226 6.17894 6.04199 5.83398C6.04199 5.48881 6.32181 5.20898 6.66699 5.20898H11.667Z" fill="white" fill-opacity="0.8"/>
</g>
</svg>
