<svg width="150" height="52" viewBox="0 0 150 52" fill="none" xmlns="http://www.w3.org/2000/svg">
<path d="M31.2461 42.3077C31.1615 42.3077 31.1307 42.2615 31.1538 42.1692L33.0577 34.8538C33.0807 34.7846 33.1269 34.75 33.1961 34.75H34.5923C34.6615 34.75 34.7115 34.7846 34.7423 34.8538L36.6461 42.1692C36.6692 42.2615 36.6384 42.3077 36.5538 42.3077H35.3884C35.3269 42.3077 35.2846 42.2731 35.2615 42.2038L34.2115 37.5308C34.15 37.2692 34.0923 37.0115 34.0384 36.7577C33.9923 36.4962 33.9461 36.2385 33.9 35.9846H33.8769C33.8307 36.2385 33.7807 36.4962 33.7269 36.7577C33.6807 37.0115 33.6269 37.2692 33.5653 37.5308L32.5153 42.2038C32.5077 42.2731 32.4653 42.3077 32.3884 42.3077H31.2461ZM32.6538 40.6923L32.873 39.6077H34.8807L35.1115 40.6923H32.6538ZM37.4029 42.3077C37.3183 42.3077 37.276 42.2654 37.276 42.1808V34.8769C37.276 34.7923 37.3144 34.75 37.3913 34.75H39.2375C40.2144 34.75 40.9452 35.0192 41.4298 35.5577C41.9144 36.0885 42.1567 36.8885 42.1567 37.9577V38.8577C42.1567 40.0192 41.9183 40.8846 41.4413 41.4538C40.9644 42.0231 40.2413 42.3077 39.2721 42.3077H37.4029ZM38.5683 41.1538H39.2029C39.7798 41.1538 40.199 40.9692 40.4606 40.6C40.7298 40.2231 40.8644 39.65 40.8644 38.8808V37.9462C40.8644 37.2538 40.7298 36.7423 40.4606 36.4115C40.1913 36.0731 39.7606 35.9038 39.1683 35.9038H38.5683V41.1538ZM43.248 42.3077C43.1711 42.3077 43.1326 42.2654 43.1326 42.1808L43.248 34.8769C43.248 34.7923 43.2865 34.75 43.3634 34.75H44.7365C44.8057 34.75 44.8519 34.7846 44.8749 34.8538L46.2711 38.9154L47.6442 34.8538C47.6672 34.7846 47.7134 34.75 47.7826 34.75H49.1557C49.2326 34.75 49.2711 34.7923 49.2711 34.8769L49.398 42.1808C49.398 42.2654 49.3557 42.3077 49.2711 42.3077H48.2326C48.1557 42.3077 48.1172 42.2654 48.1172 42.1808L48.0595 38.5C48.0519 38.1692 48.0519 37.85 48.0595 37.5423C48.0749 37.2346 48.0903 36.9423 48.1057 36.6654H48.0826C48.0057 36.9269 47.9211 37.1923 47.8288 37.4615C47.7365 37.7308 47.6403 37.9923 47.5403 38.2462L46.4095 41.3038C46.3865 41.3654 46.3442 41.3962 46.2826 41.3962H46.2249C46.1634 41.3962 46.1249 41.3654 46.1095 41.3038L44.9672 38.2231C44.8672 37.9692 44.7711 37.7115 44.6788 37.45C44.5942 37.1808 44.5134 36.9192 44.4365 36.6654H44.4134C44.4365 36.9423 44.4519 37.2346 44.4595 37.5423C44.4672 37.8423 44.4672 38.1577 44.4595 38.4885L44.4019 42.1808C44.4019 42.2654 44.3634 42.3077 44.2865 42.3077H43.248ZM50.6538 42.3077C50.5769 42.3077 50.5384 42.2654 50.5384 42.1808V34.8769C50.5384 34.7923 50.5769 34.75 50.6538 34.75H51.7153C51.7923 34.75 51.8307 34.7923 51.8307 34.8769V42.1808C51.8307 42.2654 51.7923 42.3077 51.7153 42.3077H50.6538ZM53.2001 42.3077C53.1309 42.3077 53.0963 42.2654 53.0963 42.1808V34.8769C53.0963 34.7923 53.1347 34.75 53.2117 34.75H54.677C54.7463 34.75 54.7886 34.7808 54.804 34.8423L56.154 38.6038C56.2386 38.8115 56.3193 39.0385 56.3963 39.2846C56.4809 39.5231 56.5578 39.7577 56.627 39.9885C56.704 40.2115 56.7655 40.4154 56.8117 40.6H56.8347C56.8193 40.3923 56.804 40.1538 56.7886 39.8846C56.7809 39.6154 56.7732 39.3423 56.7655 39.0654C56.7578 38.7885 56.754 38.55 56.754 38.35V34.8769C56.754 34.7923 56.7924 34.75 56.8693 34.75H57.8732C57.9501 34.75 57.9886 34.7923 57.9886 34.8769V42.1808C57.9886 42.2654 57.9501 42.3077 57.8732 42.3077H56.4309C56.3693 42.3077 56.3232 42.2769 56.2924 42.2154L54.954 38.5577C54.8232 38.2038 54.704 37.85 54.5963 37.4962C54.4886 37.1346 54.3886 36.8 54.2963 36.4923H54.2732C54.2886 36.7154 54.3001 36.9692 54.3078 37.2538C54.3155 37.5308 54.3193 37.8077 54.3193 38.0846C54.327 38.3615 54.3309 38.6154 54.3309 38.8462V42.1808C54.3309 42.2654 54.2924 42.3077 54.2155 42.3077H53.2001ZM61.1781 42.3077C61.1012 42.3077 61.0628 42.2654 61.0628 42.1808V34.8769C61.0628 34.7923 61.1012 34.75 61.1781 34.75H62.8974C63.7281 34.75 64.3397 34.9538 64.732 35.3615C65.1243 35.7692 65.3205 36.3808 65.3205 37.1962C65.3205 37.9885 65.1205 38.5923 64.7205 39.0077C64.3205 39.4231 63.7205 39.6308 62.9205 39.6308H62.3551V42.1808C62.3551 42.2654 62.3166 42.3077 62.2397 42.3077H61.1781ZM62.3551 38.4885H62.8858C63.2781 38.4885 63.5666 38.3846 63.7512 38.1769C63.9358 37.9692 64.0281 37.65 64.0281 37.2192C64.0281 36.75 63.9358 36.4115 63.7512 36.2038C63.5666 35.9962 63.282 35.8923 62.8974 35.8923H62.3551V38.4885ZM65.3319 42.3077C65.2473 42.3077 65.2165 42.2615 65.2396 42.1692L67.1434 34.8538C67.1665 34.7846 67.2127 34.75 67.2819 34.75H68.6781C68.7473 34.75 68.7973 34.7846 68.8281 34.8538L70.7319 42.1692C70.755 42.2615 70.7242 42.3077 70.6396 42.3077H69.4742C69.4127 42.3077 69.3704 42.2731 69.3473 42.2038L68.2973 37.5308C68.2358 37.2692 68.1781 37.0115 68.1242 36.7577C68.0781 36.4962 68.0319 36.2385 67.9858 35.9846H67.9627C67.9165 36.2385 67.8665 36.4962 67.8127 36.7577C67.7665 37.0115 67.7127 37.2692 67.6511 37.5308L66.6011 42.2038C66.5934 42.2731 66.5511 42.3077 66.4742 42.3077H65.3319ZM66.7396 40.6923L66.9588 39.6077H68.9665L69.1973 40.6923H66.7396ZM71.4656 42.3077C71.3964 42.3077 71.3617 42.2654 71.3617 42.1808V34.8769C71.3617 34.7923 71.4002 34.75 71.4771 34.75H72.9425C73.0117 34.75 73.0541 34.7808 73.0694 34.8423L74.4194 38.6038C74.5041 38.8115 74.5848 39.0385 74.6617 39.2846C74.7464 39.5231 74.8233 39.7577 74.8925 39.9885C74.9694 40.2115 75.031 40.4154 75.0771 40.6H75.1002C75.0848 40.3923 75.0694 40.1538 75.0541 39.8846C75.0464 39.6154 75.0387 39.3423 75.031 39.0654C75.0233 38.7885 75.0194 38.55 75.0194 38.35V34.8769C75.0194 34.7923 75.0579 34.75 75.1348 34.75H76.1387C76.2156 34.75 76.2541 34.7923 76.2541 34.8769V42.1808C76.2541 42.2654 76.2156 42.3077 76.1387 42.3077H74.6964C74.6348 42.3077 74.5887 42.2769 74.5579 42.2154L73.2194 38.5577C73.0887 38.2038 72.9694 37.85 72.8617 37.4962C72.7541 37.1346 72.6541 36.8 72.5617 36.4923H72.5387C72.5541 36.7154 72.5656 36.9692 72.5733 37.2538C72.581 37.5308 72.5848 37.8077 72.5848 38.0846C72.5925 38.3615 72.5964 38.6154 72.5964 38.8462V42.1808C72.5964 42.2654 72.5579 42.3077 72.481 42.3077H71.4656ZM77.6407 42.3077C77.5638 42.3077 77.5254 42.2654 77.5254 42.1808V34.8769C77.5254 34.7923 77.5638 34.75 77.6407 34.75H81.2523C81.3292 34.75 81.3677 34.7923 81.3677 34.8769V35.7885C81.3677 35.8731 81.3292 35.9154 81.2523 35.9154H78.8177V37.9231H81.0446C81.1215 37.9231 81.16 37.9654 81.16 38.05V38.9038C81.16 38.9885 81.1215 39.0308 81.0446 39.0308H78.8177V41.1423H81.2523C81.3292 41.1423 81.3677 41.1846 81.3677 41.2692V42.1808C81.3677 42.2654 81.3292 42.3077 81.2523 42.3077H77.6407ZM82.6437 42.3077C82.5668 42.3077 82.5284 42.2654 82.5284 42.1808V34.8769C82.5284 34.7923 82.5668 34.75 82.6437 34.75H83.7053C83.7437 34.75 83.7707 34.7654 83.7861 34.7962C83.8091 34.8192 83.8207 34.8462 83.8207 34.8769V41.1423H86.1284C86.2053 41.1423 86.2437 41.1846 86.2437 41.2692V42.1808C86.2437 42.2654 86.2053 42.3077 86.1284 42.3077H82.6437Z" fill="white" fill-opacity="0.6"/>
<rect opacity="0.8" x="5.21545" y="9.21048" width="14.0117" height="18.8826" rx="2.35299" fill="#516EFF"/>
<rect y="12.7773" width="14.0117" height="18.8826" rx="2.35299" fill="#647EFF"/>
<path d="M111.784 28.4319C111.573 28.4319 111.467 28.3342 111.467 28.1389V12.7324C111.467 12.537 111.565 12.4394 111.76 12.4394H115.984C118.084 12.4394 119.663 13.0172 120.721 14.1729C121.779 15.3123 122.308 17.0215 122.308 19.3003V21.1559C122.308 23.5975 121.779 25.4206 120.721 26.6251C119.679 27.8296 118.125 28.4319 116.057 28.4319H111.784ZM114.666 25.624H115.911C117.018 25.624 117.823 25.2578 118.328 24.5253C118.849 23.7765 119.109 22.6534 119.109 21.1559V19.3003C119.109 17.9493 118.849 16.9401 118.328 16.2727C117.807 15.589 116.977 15.2472 115.838 15.2472H114.666V25.624Z" fill="white"/>
<path d="M99.8872 28.4319C99.7082 28.4319 99.6187 28.3342 99.6187 28.1389V12.7324C99.6187 12.537 99.7082 12.4394 99.8872 12.4394H104.184C106.04 12.4394 107.391 12.8382 108.238 13.6358C109.1 14.4171 109.532 15.6216 109.532 17.2493C109.532 18.3887 109.336 19.3247 108.946 20.0572C108.555 20.7897 107.969 21.3187 107.188 21.6442V21.6686L110.24 28.0656C110.354 28.3098 110.288 28.4319 110.044 28.4319H107.114C106.968 28.4319 106.862 28.3668 106.797 28.2365L104.136 22.2058H102.817V28.1389C102.817 28.3342 102.728 28.4319 102.549 28.4319H99.8872ZM102.817 19.5689H104.16C104.925 19.5689 105.479 19.3979 105.82 19.0561C106.178 18.698 106.357 18.1364 106.357 17.3714C106.357 16.6064 106.187 16.0611 105.845 15.7355C105.503 15.41 104.958 15.2472 104.209 15.2472H102.817V19.5689Z" fill="white"/>
<path d="M86.9359 28.4319C86.7243 28.4319 86.6591 28.3261 86.7405 28.1145L90.7692 12.6591C90.8017 12.5126 90.8994 12.4394 91.0622 12.4394H94.5048C94.6676 12.4394 94.7734 12.5126 94.8222 12.6591L98.8753 28.1145C98.9241 28.3261 98.8509 28.4319 98.6555 28.4319H95.7256C95.5791 28.4319 95.4815 28.3586 95.4326 28.2121L93.4305 18.6899C93.3003 18.1364 93.1864 17.583 93.0887 17.0296C92.991 16.4762 92.8934 15.9309 92.7957 15.3937H92.7469C92.6492 15.9309 92.5434 16.4762 92.4295 17.0296C92.3318 17.583 92.2341 18.1364 92.1365 18.6899L90.0855 28.1877C90.0693 28.3505 89.9716 28.4319 89.7925 28.4319H86.9359ZM90.2564 25.209L90.7448 22.6209H94.7246L95.2617 25.209H90.2564Z" fill="white"/>
<path d="M80.9563 28.6271C79.1821 28.6271 77.8229 28.1551 76.8789 27.211C75.9348 26.2669 75.4627 24.8182 75.4627 22.8649V18.0305C75.4627 16.1098 75.9348 14.6693 76.8789 13.7089C77.8229 12.7323 79.1821 12.244 80.9563 12.244C82.1934 12.244 83.2352 12.48 84.0816 12.952C84.928 13.4241 85.5465 14.0833 85.9372 14.9297C86.3441 15.7761 86.4743 16.7772 86.3278 17.9329C86.3116 18.1445 86.2221 18.2503 86.0593 18.2503H83.3979C83.2189 18.2503 83.1375 18.1445 83.1538 17.9329C83.2189 17.0214 83.0724 16.3214 82.7143 15.8331C82.3562 15.3285 81.7783 15.0762 80.9807 15.0762C80.1994 15.0762 79.6135 15.3204 79.2228 15.8087C78.8484 16.2807 78.6612 17.0458 78.6612 18.1038V22.7184C78.6612 23.809 78.8566 24.5985 79.2472 25.0868C79.6379 25.5588 80.2157 25.7948 80.9807 25.7948C81.8272 25.7948 82.4132 25.5344 82.7387 25.0135C83.0805 24.4764 83.227 23.7764 83.1782 22.9137C83.1619 22.7184 83.2433 22.6208 83.4223 22.6208H86.0593C86.2221 22.6208 86.3197 22.7184 86.3523 22.9137C86.515 24.6717 86.1244 26.0634 85.1803 27.0889C84.2362 28.1144 82.8282 28.6271 80.9563 28.6271Z" fill="white"/>
<path d="M63.1257 28.4319C62.9466 28.4319 62.8571 28.3342 62.8571 28.1389V12.7324C62.8571 12.537 62.9466 12.4394 63.1257 12.4394H66.5927C66.7392 12.4394 66.8369 12.5045 66.8857 12.6347L69.4982 19.9839C69.6773 20.4071 69.8482 20.871 70.011 21.3756C70.1738 21.8802 70.3284 22.3767 70.4749 22.865C70.6214 23.3371 70.7435 23.7684 70.8411 24.1591H70.9144C70.8818 23.7196 70.8411 23.2068 70.7923 22.6209C70.7597 22.0186 70.7353 21.4163 70.719 20.8141C70.7028 20.1955 70.6946 19.6747 70.6946 19.2514V12.7324C70.6946 12.537 70.776 12.4394 70.9388 12.4394H73.4536C73.6327 12.4394 73.7222 12.537 73.7222 12.7324V28.1389C73.7222 28.3342 73.6327 28.4319 73.4536 28.4319H70.011C69.8808 28.4319 69.7831 28.3668 69.718 28.2365L67.1055 21.0826C66.845 20.3664 66.6009 19.634 66.373 18.8852C66.1614 18.1364 65.9661 17.4528 65.787 16.8343H65.7138C65.7626 17.29 65.7951 17.8272 65.8114 18.4457C65.8277 19.0643 65.844 19.6747 65.8603 20.2769C65.8928 20.8792 65.9091 21.4163 65.9091 21.8884V28.1389C65.9091 28.3342 65.8114 28.4319 65.6161 28.4319H63.1257Z" fill="white"/>
<path d="M57.9293 28.4319C57.7503 28.4319 57.6607 28.3342 57.6607 28.1389V12.7324C57.6607 12.537 57.7503 12.4394 57.9293 12.4394H60.5907C60.7697 12.4394 60.8592 12.537 60.8592 12.7324V28.1389C60.8592 28.3342 60.7697 28.4319 60.5907 28.4319H57.9293Z" fill="white"/>
<path d="M44.9781 28.4319C44.7664 28.4319 44.7013 28.3261 44.7827 28.1145L48.8114 12.6591C48.8439 12.5126 48.9416 12.4394 49.1044 12.4394H52.547C52.7098 12.4394 52.8156 12.5126 52.8644 12.6591L56.9175 28.1145C56.9663 28.3261 56.8931 28.4319 56.6977 28.4319H53.7678C53.6213 28.4319 53.5237 28.3586 53.4748 28.2121L51.4727 18.6899C51.3425 18.1364 51.2285 17.583 51.1309 17.0296C51.0332 16.4762 50.9356 15.9309 50.8379 15.3937H50.7891C50.6914 15.9309 50.5856 16.4762 50.4717 17.0296C50.374 17.583 50.2763 18.1364 50.1787 18.6899L48.1277 28.1877C48.1114 28.3505 48.0138 28.4319 47.8347 28.4319H44.9781ZM48.2986 25.209L48.787 22.6209H52.7668L53.3039 25.209H48.2986Z" fill="white"/>
<path d="M30.6507 28.4319C30.4553 28.4319 30.3577 28.3342 30.3577 28.1389L30.6262 12.7324C30.6262 12.537 30.7158 12.4394 30.8948 12.4394H34.1177C34.2805 12.4394 34.3944 12.5126 34.4596 12.6591L37.3162 20.8629L40.1485 12.6591C40.2136 12.5126 40.3194 12.4394 40.4659 12.4394H43.7132C43.8923 12.4394 43.9818 12.537 43.9818 12.7324L44.2504 28.1389C44.2504 28.3342 44.1527 28.4319 43.9574 28.4319H41.3693C41.1902 28.4319 41.1007 28.3342 41.1007 28.1389L41.003 21.4001C40.9868 20.6187 40.9949 19.8863 41.0275 19.2026C41.06 18.519 41.1007 17.876 41.1495 17.2737H41.0763C40.8972 17.8272 40.7019 18.3969 40.4903 18.9829C40.295 19.5526 40.0834 20.1141 39.8555 20.6676L37.6336 26.4053C37.5848 26.5518 37.4953 26.6251 37.3651 26.6251H37.2186C37.0883 26.6251 37.007 26.5518 36.9744 26.4053L34.7281 20.6432C34.5002 20.0897 34.2886 19.5282 34.0933 18.9585C33.898 18.3725 33.7108 17.8109 33.5317 17.2737H33.4829C33.5155 17.8597 33.548 18.4945 33.5806 19.1782C33.6131 19.8618 33.6213 20.5943 33.605 21.3756L33.5073 28.1389C33.5073 28.3342 33.4178 28.4319 33.2388 28.4319H30.6507Z" fill="white"/>
</svg>
