<svg width="20" height="20" viewBox="0 0 20 20" fill="none" xmlns="http://www.w3.org/2000/svg">
<path d="M2.5 1.75C2.91421 1.75 3.25 2.08579 3.25 2.5V15.833C3.25 16.0761 3.34665 16.3095 3.51855 16.4814C3.69046 16.6534 3.92388 16.75 4.16699 16.75H17.5C17.9142 16.75 18.25 17.0858 18.25 17.5C18.25 17.9142 17.9142 18.25 17.5 18.25H4.16699C3.52605 18.25 2.91122 17.9952 2.45801 17.542C2.00479 17.0888 1.75 16.4739 1.75 15.833V2.5C1.75 2.08579 2.08579 1.75 2.5 1.75ZM8.33301 5.91699C9.20735 5.91699 9.91584 6.6257 9.91602 7.5V13.334C9.91566 14.2081 9.20724 14.917 8.33301 14.917H6.66602C5.79208 14.9166 5.08336 14.2079 5.08301 13.334V7.5C5.08318 6.62592 5.79197 5.91734 6.66602 5.91699H8.33301ZM15 3.41699C15.8743 3.41699 16.5828 4.1257 16.583 5V13.334C16.5827 14.2081 15.8742 14.917 15 14.917H13.333C12.4589 14.9168 11.7504 14.208 11.75 13.334V5C11.7502 4.12581 12.4588 3.41717 13.333 3.41699H15ZM6.66602 7.41699C6.6204 7.41734 6.58318 7.45434 6.58301 7.5V13.334C6.58335 13.3795 6.62051 13.4166 6.66602 13.417H8.33301C8.37881 13.417 8.41567 13.3797 8.41602 13.334V7.5C8.41584 7.45413 8.37892 7.41699 8.33301 7.41699H6.66602ZM13.333 4.91699C13.2872 4.91717 13.2502 4.95423 13.25 5V13.334C13.2503 13.3796 13.2874 13.4168 13.333 13.417H15C15.0458 13.417 15.0827 13.3797 15.083 13.334V5C15.0828 4.95413 15.0459 4.91699 15 4.91699H13.333Z" fill="white" fill-opacity="0.8"/>
</svg>
