<svg width="20" height="20" viewBox="0 0 20 20" fill="none" xmlns="http://www.w3.org/2000/svg">
<g clip-path="url(#clip0_7577_3793)">
<path d="M13.3331 4.33301C15.0819 4.33318 16.4991 5.75121 16.4991 7.5C16.4991 7.51468 16.4974 7.52931 16.4972 7.54395C16.5829 7.53715 16.6692 7.53467 16.756 7.53711C17.3967 7.55531 18.0041 7.82726 18.4445 8.29297C18.8849 8.75905 19.1227 9.38145 19.1046 10.0225C19.0865 10.6621 18.8148 11.2677 18.3507 11.708L14.5187 15.376C13.7766 16.1934 12.7463 16.584 11.6661 16.584H8.33313C7.99229 16.584 7.8344 16.6932 7.76672 16.7832C7.73544 16.8249 7.6995 16.8641 7.66028 16.8984L6.93079 17.5361L7.19739 17.8027C7.4901 18.0955 7.48988 18.5704 7.19739 18.8633C6.90451 19.1562 6.42974 19.1561 6.13684 18.8633L1.97375 14.7002C1.96934 14.6958 1.96441 14.692 1.96008 14.6875C1.95775 14.6851 1.95554 14.6821 1.95325 14.6797L1.13684 13.8633C0.843948 13.5704 0.843948 13.0956 1.13684 12.8027C1.42976 12.5102 1.90462 12.51 2.19739 12.8027L2.50989 13.1152L6.6134 9.15918C7.04677 8.62603 7.69743 8.41706 8.33313 8.41699H10.3019C10.2141 8.12669 10.1662 7.81894 10.1661 7.5C10.1661 5.75117 11.5843 4.33312 13.3331 4.33301ZM16.713 9.03613C16.4697 9.02938 16.2337 9.11996 16.0568 9.28711L16.0519 9.29199L16.0509 9.29102L15.588 9.71973C15.5374 9.77115 15.4838 9.81931 15.4298 9.86719L12.5519 12.541C12.5277 12.5634 12.5018 12.5829 12.4757 12.6016C12.0295 13.016 11.4443 13.25 10.8331 13.25H9.16711C8.75301 13.25 8.41729 12.9141 8.41711 12.5C8.41729 12.0859 8.75301 11.75 9.16711 11.75H10.8331C11.0762 11.75 11.3097 11.6533 11.4816 11.4814C11.6532 11.3097 11.7499 11.0768 11.7501 10.834C11.7501 10.591 11.6533 10.3574 11.4816 10.1855C11.3097 10.0137 11.0762 9.91702 10.8331 9.91699H8.33313C7.99192 9.91706 7.83425 10.0272 7.76672 10.1172C7.74277 10.1491 7.71634 10.1793 7.68762 10.207L3.57043 14.1758L5.86731 16.4727L6.62317 15.8115C7.05653 15.2883 7.70277 15.084 8.33313 15.084H11.6661C12.3975 15.084 13.014 14.8217 13.4357 14.3398L13.4816 14.292L17.3146 10.625L17.3175 10.6221H17.3185C17.4954 10.4548 17.5987 10.2238 17.6056 9.98047C17.6125 9.73703 17.5219 9.50025 17.3546 9.32324C17.1874 9.14647 16.9563 9.04301 16.713 9.03613ZM13.3331 5.83301C12.4128 5.83312 11.6661 6.5796 11.6661 7.5C11.6663 8.42025 12.4129 9.1659 13.3331 9.16602C13.7387 9.16594 14.1097 9.02008 14.3986 8.7793L14.5294 8.6582C14.8198 8.35838 14.9991 7.95047 14.9991 7.5C14.9991 6.57963 14.2535 5.83318 13.3331 5.83301ZM5.00012 0.916992C6.795 0.917053 8.25012 2.3721 8.25012 4.16699C8.24995 5.96173 6.79489 7.41693 5.00012 7.41699C3.20531 7.41699 1.7503 5.96177 1.75012 4.16699C1.75012 2.37207 3.2052 0.916992 5.00012 0.916992ZM5.00012 2.41699C4.03362 2.41699 3.25012 3.20049 3.25012 4.16699C3.2503 5.13334 4.03373 5.91699 5.00012 5.91699C5.96646 5.91693 6.74995 5.1333 6.75012 4.16699C6.75012 3.20053 5.96657 2.41705 5.00012 2.41699Z" fill="white" fill-opacity="0.8"/>
</g>
<defs>
<clipPath id="clip0_7577_3793">
<rect width="20" height="20" fill="white"/>
</clipPath>
</defs>
</svg>
