<svg width="20" height="20" viewBox="0 0 20 20" fill="none" xmlns="http://www.w3.org/2000/svg">
<path d="M15 1.75C15.4198 1.75 15.8222 1.91704 16.1191 2.21387C16.416 2.51072 16.5829 2.9132 16.583 3.33301V5.08301H16.667C17.0867 5.08309 17.4893 5.25012 17.7861 5.54688C18.0831 5.84381 18.25 6.24707 18.25 6.66699V9.43848C18.3847 9.51092 18.509 9.60375 18.6191 9.71387C18.916 10.0107 19.0829 10.4132 19.083 10.833V12.5C19.083 12.9199 18.9161 13.3222 18.6191 13.6191C18.5092 13.7291 18.3843 13.8202 18.25 13.8926V16.667C18.2499 17.0867 18.0829 17.4893 17.7861 17.7861C17.4893 18.0829 17.0867 18.2499 16.667 18.25H4.16699C3.52628 18.25 2.91117 17.9959 2.45801 17.543C2.00495 17.0899 1.75017 16.4747 1.75 15.834V4.16699C1.75 4.14106 1.75134 4.1151 1.75391 4.08984C1.7735 3.47692 2.02303 2.89298 2.45801 2.45801C2.91122 2.00479 3.52605 1.75 4.16699 1.75H15ZM3.25 15.834C3.25017 16.0768 3.3469 16.3097 3.51855 16.4814C3.69045 16.6533 3.92395 16.75 4.16699 16.75H16.667C16.6889 16.7499 16.7101 16.741 16.7256 16.7256C16.741 16.7101 16.7499 16.6889 16.75 16.667V14.083H15C14.3591 14.083 13.7442 13.8291 13.291 13.376C12.8379 12.9228 12.5831 12.3078 12.583 11.667C12.583 11.0261 12.8379 10.4112 13.291 9.95801C13.7442 9.5048 14.3591 9.25 15 9.25H16.75V6.66699C16.75 6.64489 16.7412 6.62305 16.7256 6.60742C16.7101 6.59197 16.6889 6.58309 16.667 6.58301H4.16699C3.84932 6.58301 3.53842 6.51952 3.25 6.40137V15.834ZM15 10.75C14.7569 10.75 14.5235 10.8466 14.3516 11.0186C14.1798 11.1904 14.083 11.424 14.083 11.667C14.0831 11.9098 14.1799 12.1427 14.3516 12.3145C14.5235 12.4864 14.7569 12.583 15 12.583H17.5C17.5221 12.583 17.543 12.5742 17.5586 12.5586C17.5742 12.543 17.583 12.5221 17.583 12.5V10.833C17.5829 10.811 17.5741 10.79 17.5586 10.7744C17.543 10.7589 17.522 10.75 17.5 10.75H15ZM4.16699 3.25C3.92388 3.25 3.69046 3.34665 3.51855 3.51855C3.34665 3.69046 3.25 3.92388 3.25 4.16699C3.25009 4.40991 3.34683 4.64264 3.51855 4.81445C3.69046 4.98636 3.92388 5.08301 4.16699 5.08301H15.083V3.33301C15.0829 3.31102 15.0741 3.28996 15.0586 3.27441C15.043 3.25889 15.022 3.25 15 3.25H4.16699Z" fill="white" fill-opacity="0.8"/>
</svg>
