<svg width="20" height="20" viewBox="0 0 20 20" fill="none" xmlns="http://www.w3.org/2000/svg">
<g opacity="0.3">
<mask id="path-1-inside-1_7577_3814" fill="white">
<path d="M10.625 11.25H9.375C8.87772 11.25 8.40081 11.4475 8.04917 11.7992C7.69754 12.1508 7.5 12.6277 7.5 13.125V16.25C7.5 16.7473 7.69754 17.2242 8.04917 17.5758C8.40081 17.9275 8.87772 18.125 9.375 18.125H10.625C11.1223 18.125 11.5992 17.9275 11.9508 17.5758C12.3025 17.2242 12.5 16.7473 12.5 16.25V13.125C12.5 12.6277 12.3025 12.1508 11.9508 11.7992C11.5992 11.4475 11.1223 11.25 10.625 11.25ZM11.25 16.25C11.25 16.4158 11.1842 16.5747 11.0669 16.6919C10.9497 16.8092 10.7908 16.875 10.625 16.875H9.375C9.20924 16.875 9.05027 16.8092 8.93306 16.6919C8.81585 16.5747 8.75 16.4158 8.75 16.25V13.125C8.75 12.9592 8.81585 12.8003 8.93306 12.6831C9.05027 12.5658 9.20924 12.5 9.375 12.5H10.625C10.7908 12.5 10.9497 12.5658 11.0669 12.6831C11.1842 12.8003 11.25 12.9592 11.25 13.125V16.25ZM16.875 6.875H15.625C15.1277 6.875 14.6508 7.07254 14.2992 7.42418C13.9475 7.77581 13.75 8.25272 13.75 8.75V16.25C13.75 16.7473 13.9475 17.2242 14.2992 17.5758C14.6508 17.9275 15.1277 18.125 15.625 18.125H16.875C17.3723 18.125 17.8492 17.9275 18.2008 17.5758C18.5525 17.2242 18.75 16.7473 18.75 16.25V8.75C18.75 8.25272 18.5525 7.77581 18.2008 7.42418C17.8492 7.07254 17.3723 6.875 16.875 6.875ZM17.5 16.25C17.5 16.4158 17.4342 16.5747 17.3169 16.6919C17.1997 16.8092 17.0408 16.875 16.875 16.875H15.625C15.4592 16.875 15.3003 16.8092 15.1831 16.6919C15.0658 16.5747 15 16.4158 15 16.25V8.75C15 8.58424 15.0658 8.42527 15.1831 8.30806C15.3003 8.19085 15.4592 8.125 15.625 8.125H16.875C17.0408 8.125 17.1997 8.19085 17.3169 8.30806C17.4342 8.42527 17.5 8.58424 17.5 8.75V16.25ZM4.375 8.75H3.125C2.62772 8.75 2.15081 8.94754 1.79917 9.29918C1.44754 9.65081 1.25 10.1277 1.25 10.625V16.25C1.25 16.7473 1.44754 17.2242 1.79917 17.5758C2.15081 17.9275 2.62772 18.125 3.125 18.125H4.375C4.87228 18.125 5.34919 17.9275 5.70083 17.5758C6.05246 17.2242 6.25 16.7473 6.25 16.25V10.625C6.25 10.1277 6.05246 9.65081 5.70083 9.29918C5.34919 8.94754 4.87228 8.75 4.375 8.75ZM5 16.25C5 16.4158 4.93415 16.5747 4.81694 16.6919C4.69973 16.8092 4.54076 16.875 4.375 16.875H3.125C2.95924 16.875 2.80027 16.8092 2.68306 16.6919C2.56585 16.5747 2.5 16.4158 2.5 16.25V10.625C2.5 10.4592 2.56585 10.3003 2.68306 10.1831C2.80027 10.0658 2.95924 10 3.125 10H4.375C4.54076 10 4.69973 10.0658 4.81694 10.1831C4.93415 10.3003 5 10.4592 5 10.625V16.25ZM2.5 5.625C2.47596 5.29348 2.58461 4.96599 2.80203 4.71457C3.01946 4.46316 3.32785 4.30841 3.65938 4.28438C3.9909 4.26034 4.31839 4.36899 4.5698 4.58641C4.82122 4.80384 4.97596 5.11223 5 5.44375L9.25 7.14375C9.464 6.97476 9.72738 6.88038 10 6.875C10.1543 6.8745 10.3072 6.90423 10.45 6.9625L15 3.3125V3.125C15 2.87777 15.0733 2.6361 15.2107 2.43054C15.348 2.22498 15.5432 2.06476 15.7716 1.97015C16.0001 1.87554 16.2514 1.85079 16.4939 1.89902C16.7363 1.94725 16.9591 2.0663 17.1339 2.24112C17.3087 2.41593 17.4278 2.63866 17.476 2.88114C17.5242 3.12361 17.4995 3.37495 17.4048 3.60335C17.3102 3.83176 17.15 4.02699 16.9445 4.16434C16.7389 4.30169 16.4972 4.375 16.25 4.375C16.0957 4.3755 15.9428 4.34577 15.8 4.2875L11.25 7.9375V8.125C11.274 8.45652 11.1654 8.78401 10.948 9.03543C10.7305 9.28684 10.4221 9.44159 10.0906 9.46563C9.7591 9.48966 9.43161 9.38102 9.1802 9.16359C8.92878 8.94617 8.77404 8.63777 8.75 8.30625L4.5 6.60625C4.286 6.77524 4.02262 6.86962 3.75 6.875C3.41848 6.875 3.10054 6.7433 2.86612 6.50888C2.6317 6.27446 2.5 5.95652 2.5 5.625Z"/>
</mask>
<path d="M10.625 11.25H9.375C8.87772 11.25 8.40081 11.4475 8.04917 11.7992C7.69754 12.1508 7.5 12.6277 7.5 13.125V16.25C7.5 16.7473 7.69754 17.2242 8.04917 17.5758C8.40081 17.9275 8.87772 18.125 9.375 18.125H10.625C11.1223 18.125 11.5992 17.9275 11.9508 17.5758C12.3025 17.2242 12.5 16.7473 12.5 16.25V13.125C12.5 12.6277 12.3025 12.1508 11.9508 11.7992C11.5992 11.4475 11.1223 11.25 10.625 11.25ZM11.25 16.25C11.25 16.4158 11.1842 16.5747 11.0669 16.6919C10.9497 16.8092 10.7908 16.875 10.625 16.875H9.375C9.20924 16.875 9.05027 16.8092 8.93306 16.6919C8.81585 16.5747 8.75 16.4158 8.75 16.25V13.125C8.75 12.9592 8.81585 12.8003 8.93306 12.6831C9.05027 12.5658 9.20924 12.5 9.375 12.5H10.625C10.7908 12.5 10.9497 12.5658 11.0669 12.6831C11.1842 12.8003 11.25 12.9592 11.25 13.125V16.25ZM16.875 6.875H15.625C15.1277 6.875 14.6508 7.07254 14.2992 7.42418C13.9475 7.77581 13.75 8.25272 13.75 8.75V16.25C13.75 16.7473 13.9475 17.2242 14.2992 17.5758C14.6508 17.9275 15.1277 18.125 15.625 18.125H16.875C17.3723 18.125 17.8492 17.9275 18.2008 17.5758C18.5525 17.2242 18.75 16.7473 18.75 16.25V8.75C18.75 8.25272 18.5525 7.77581 18.2008 7.42418C17.8492 7.07254 17.3723 6.875 16.875 6.875ZM17.5 16.25C17.5 16.4158 17.4342 16.5747 17.3169 16.6919C17.1997 16.8092 17.0408 16.875 16.875 16.875H15.625C15.4592 16.875 15.3003 16.8092 15.1831 16.6919C15.0658 16.5747 15 16.4158 15 16.25V8.75C15 8.58424 15.0658 8.42527 15.1831 8.30806C15.3003 8.19085 15.4592 8.125 15.625 8.125H16.875C17.0408 8.125 17.1997 8.19085 17.3169 8.30806C17.4342 8.42527 17.5 8.58424 17.5 8.75V16.25ZM4.375 8.75H3.125C2.62772 8.75 2.15081 8.94754 1.79917 9.29918C1.44754 9.65081 1.25 10.1277 1.25 10.625V16.25C1.25 16.7473 1.44754 17.2242 1.79917 17.5758C2.15081 17.9275 2.62772 18.125 3.125 18.125H4.375C4.87228 18.125 5.34919 17.9275 5.70083 17.5758C6.05246 17.2242 6.25 16.7473 6.25 16.25V10.625C6.25 10.1277 6.05246 9.65081 5.70083 9.29918C5.34919 8.94754 4.87228 8.75 4.375 8.75ZM5 16.25C5 16.4158 4.93415 16.5747 4.81694 16.6919C4.69973 16.8092 4.54076 16.875 4.375 16.875H3.125C2.95924 16.875 2.80027 16.8092 2.68306 16.6919C2.56585 16.5747 2.5 16.4158 2.5 16.25V10.625C2.5 10.4592 2.56585 10.3003 2.68306 10.1831C2.80027 10.0658 2.95924 10 3.125 10H4.375C4.54076 10 4.69973 10.0658 4.81694 10.1831C4.93415 10.3003 5 10.4592 5 10.625V16.25ZM2.5 5.625C2.47596 5.29348 2.58461 4.96599 2.80203 4.71457C3.01946 4.46316 3.32785 4.30841 3.65938 4.28438C3.9909 4.26034 4.31839 4.36899 4.5698 4.58641C4.82122 4.80384 4.97596 5.11223 5 5.44375L9.25 7.14375C9.464 6.97476 9.72738 6.88038 10 6.875C10.1543 6.8745 10.3072 6.90423 10.45 6.9625L15 3.3125V3.125C15 2.87777 15.0733 2.6361 15.2107 2.43054C15.348 2.22498 15.5432 2.06476 15.7716 1.97015C16.0001 1.87554 16.2514 1.85079 16.4939 1.89902C16.7363 1.94725 16.9591 2.0663 17.1339 2.24112C17.3087 2.41593 17.4278 2.63866 17.476 2.88114C17.5242 3.12361 17.4995 3.37495 17.4048 3.60335C17.3102 3.83176 17.15 4.02699 16.9445 4.16434C16.7389 4.30169 16.4972 4.375 16.25 4.375C16.0957 4.3755 15.9428 4.34577 15.8 4.2875L11.25 7.9375V8.125C11.274 8.45652 11.1654 8.78401 10.948 9.03543C10.7305 9.28684 10.4221 9.44159 10.0906 9.46563C9.7591 9.48966 9.43161 9.38102 9.1802 9.16359C8.92878 8.94617 8.77404 8.63777 8.75 8.30625L4.5 6.60625C4.286 6.77524 4.02262 6.86962 3.75 6.875C3.41848 6.875 3.10054 6.7433 2.86612 6.50888C2.6317 6.27446 2.5 5.95652 2.5 5.625Z" fill="white" fill-opacity="0.8" stroke="white" stroke-opacity="0.8" stroke-width="32" mask="url(#path-1-inside-1_7577_3814)"/>
</g>
</svg>
