<svg width="20" height="20" viewBox="0 0 20 20" fill="none" xmlns="http://www.w3.org/2000/svg">
<path d="M10 11.75C11.0829 11.7501 12.122 12.1806 12.8877 12.9463C13.6532 13.712 14.0839 14.7503 14.084 15.833V17.5C14.084 17.914 13.7479 18.2496 13.334 18.25C12.9198 18.25 12.584 17.9142 12.584 17.5V15.833C12.5839 15.1481 12.3113 14.4912 11.8271 14.0068C11.3428 13.5224 10.685 13.2501 10 13.25H5C4.31505 13.2501 3.6582 13.5225 3.17383 14.0068C2.68944 14.4912 2.41708 15.148 2.41699 15.833V17.5C2.41699 17.9141 2.08106 18.2498 1.66699 18.25C1.25278 18.25 0.916992 17.9142 0.916992 17.5V15.833C0.917078 14.7502 1.34758 13.712 2.11328 12.9463C2.87896 12.1807 3.91723 11.7501 5 11.75H10ZM15.1064 12.4209C15.21 12.02 15.6196 11.7785 16.0205 11.8818C16.8964 12.108 17.6723 12.6191 18.2266 13.334C18.7809 14.049 19.0823 14.9283 19.083 15.833V17.5C19.0829 17.9141 18.7472 18.25 18.333 18.25C17.919 18.2498 17.5831 17.914 17.583 17.5V15.834L17.5742 15.6201C17.5327 15.1241 17.3478 14.6487 17.041 14.2529C16.6904 13.8008 16.1995 13.478 15.6455 13.335C15.2447 13.2313 15.0031 12.8218 15.1064 12.4209ZM7.5 1.75C9.7549 1.75018 11.5838 3.5781 11.584 5.83301C11.584 8.08806 9.75501 9.91682 7.5 9.91699C5.24499 9.91682 3.41699 8.08806 3.41699 5.83301C3.41717 3.5781 5.2451 1.75018 7.5 1.75ZM12.6064 2.42285C12.7091 2.02182 13.1175 1.77957 13.5186 1.88184C14.3968 2.10671 15.1755 2.61782 15.7314 3.33398C16.2874 4.05021 16.5898 4.93122 16.5898 5.83789C16.5897 6.74439 16.2873 7.6257 15.7314 8.3418C15.1755 9.05764 14.3966 9.56815 13.5186 9.79297C13.1176 9.89522 12.7092 9.65382 12.6064 9.25293C12.5037 8.85178 12.7464 8.44273 13.1475 8.33984C13.7027 8.19754 14.1953 7.87462 14.5469 7.42188C14.8985 6.96888 15.0897 6.41133 15.0898 5.83789C15.0898 5.26437 14.8985 4.70699 14.5469 4.25391C14.1953 3.80094 13.7029 3.47729 13.1475 3.33496C12.7466 3.23217 12.5042 2.82381 12.6064 2.42285ZM7.5 3.25C6.07352 3.25018 4.91717 4.40653 4.91699 5.83301C4.91699 7.25963 6.07341 8.41682 7.5 8.41699C8.92659 8.41682 10.084 7.25963 10.084 5.83301C10.0838 4.40653 8.92648 3.25018 7.5 3.25Z" fill="white"/>
</svg>
