<svg width="20" height="20" viewBox="0 0 20 20" fill="none" xmlns="http://www.w3.org/2000/svg">
<g opacity="0.3" clip-path="url(#clip0_7577_3835)">
<path d="M5.14854 3.32549C6.73763 2.16776 8.68838 1.61594 10.6485 1.76885C12.6087 1.92188 14.4507 2.76922 15.8409 4.15947C17.2312 5.54982 18.0786 7.39163 18.2315 9.35185C18.3845 11.312 17.8327 13.2627 16.6749 14.8519C15.5171 16.4409 13.8288 17.5647 11.9161 18.0198C10.1088 18.4497 8.21264 18.2546 6.53331 17.4749L1.90831 19.0433C1.63807 19.1349 1.33866 19.0652 1.13682 18.8636C0.934991 18.6617 0.865496 18.3624 0.957134 18.0921L2.52452 13.4661C1.74517 11.787 1.55074 9.89134 1.98057 8.08427C2.43569 6.17143 3.55939 4.48339 5.14854 3.32549ZM10.5323 3.26396C8.92859 3.13885 7.33249 3.59118 6.03233 4.53838C4.7322 5.48569 3.81295 6.86602 3.44053 8.43095C3.06818 9.99606 3.26679 11.6431 4.00108 13.0745C4.09353 13.2549 4.10909 13.4655 4.04405 13.6575L2.86436 17.1351L6.34288 15.9563C6.53487 15.8914 6.74551 15.9068 6.92588 15.9993C8.35723 16.7334 10.0045 16.9322 11.5694 16.5599C13.1342 16.1874 14.5148 15.2681 15.462 13.9681C16.4092 12.6679 16.8615 11.0718 16.7364 9.46806C16.6112 7.86441 15.9177 6.35748 14.7804 5.22002C13.643 4.08265 12.1359 3.38927 10.5323 3.26396ZM10.0089 13.4163C10.4227 13.4166 10.7587 13.7525 10.7589 14.1663C10.7589 14.5803 10.4228 14.916 10.0089 14.9163H10.0001C9.58589 14.9163 9.2501 14.5805 9.2501 14.1663C9.25029 13.7523 9.58601 13.4163 10.0001 13.4163H10.0089ZM8.28721 5.52763C8.94882 5.13894 9.7272 4.99654 10.4835 5.12627C11.2396 5.25618 11.9259 5.64969 12.42 6.23662C12.9138 6.82347 13.1846 7.56632 13.1837 8.3333L13.173 8.55888C13.0702 9.66535 12.2281 10.4133 11.5997 10.8323C11.2419 11.0709 10.8892 11.247 10.629 11.3626C10.4981 11.4208 10.387 11.4652 10.3077 11.4954C10.2685 11.5103 10.2361 11.5214 10.213 11.5296C10.2016 11.5336 10.1917 11.5379 10.1847 11.5403L10.173 11.5442H10.171C9.77819 11.6752 9.35294 11.4633 9.22178 11.0706C9.09089 10.6779 9.30302 10.2527 9.69542 10.1214H9.69639C9.69886 10.1205 9.70388 10.1187 9.71006 10.1165C9.72347 10.1117 9.74615 10.1039 9.77452 10.0931C9.83191 10.0712 9.91691 10.0372 10.0196 9.9915C10.2281 9.89881 10.5008 9.76218 10.7677 9.58427C11.3471 9.19795 11.6835 8.76831 11.6837 8.3333V8.33232C11.6843 7.91922 11.5385 7.51854 11.2726 7.20244C11.0065 6.88643 10.6367 6.67476 10.2296 6.60478C9.8224 6.53494 9.4032 6.61136 9.04698 6.8206C8.69073 7.02997 8.41949 7.35855 8.28233 7.74834C8.14493 8.13892 7.71689 8.34444 7.32627 8.20732C6.93567 8.06984 6.73095 7.64192 6.86827 7.25127C7.12297 6.52725 7.62552 5.91652 8.28721 5.52763Z" fill="white" fill-opacity="0.8"/>
</g>
<defs>
<clipPath id="clip0_7577_3835">
<rect width="20" height="20" fill="white"/>
</clipPath>
</defs>
</svg>
