<svg width="150" height="106" viewBox="0 0 150 106" fill="none" xmlns="http://www.w3.org/2000/svg">
<g clip-path="url(#clip0_7585_1542)">
<path d="M23.3388 12.6653C24.7019 12.2088 25.497 10.7255 25.0427 9.35632C24.5883 7.9871 23.1116 7.18839 21.635 7.6448C20.2719 8.1012 19.4767 9.58452 19.9311 10.9537C20.3855 12.3229 21.8621 13.1217 23.3388 12.6653Z" fill="white" fill-opacity="0.1"/>
<path d="M29.132 3.99342C30.0408 3.65111 30.6087 2.6242 30.2679 1.71139C29.9272 0.798582 28.9049 0.228076 27.9961 0.57038C27.0874 0.912683 26.5194 1.93959 26.8602 2.8524C27.0874 3.76521 28.1097 4.33572 29.132 3.99342Z" fill="white" fill-opacity="0.1"/>
<path d="M125.295 24.729C126.999 23.2457 127.113 20.6213 125.522 19.0239C124.046 17.4265 121.433 17.3124 119.843 18.7957C118.139 20.279 118.025 22.9034 119.616 24.5008C121.092 26.0982 123.705 26.2123 125.295 24.729Z" fill="white" fill-opacity="0.1"/>
<path d="M131.429 32.7243C132.11 32.0397 132.224 31.0128 131.542 30.3282C130.861 29.6436 129.838 29.5295 129.157 30.2141C128.475 30.8987 128.362 31.9256 129.043 32.6102C129.611 33.4089 130.747 33.4089 131.429 32.7243Z" fill="white" fill-opacity="0.1"/>
<path d="M27.996 100.409C28.6776 99.7245 28.7912 98.6976 28.1096 98.013C27.4281 97.3284 26.4057 97.2143 25.7242 97.8989C25.0427 98.5835 24.9291 99.6104 25.6106 100.295C26.2922 100.98 27.3145 101.094 27.996 100.409Z" fill="white" fill-opacity="0.1"/>
<path d="M70.9334 106C100.126 106 123.867 82.267 123.867 53.057C123.753 23.733 100.126 0 70.9334 0C41.6269 0 18 23.733 18 52.943C18 82.267 41.6269 106 70.9334 106Z" fill="white" fill-opacity="0.03"/>
<path d="M106.062 22.9422V27.0426H105.748H101.771L40.7493 26.8323C39.5979 26.8323 38.4466 26.622 37.2952 26.3066C37.1905 26.3066 37.0859 26.2015 36.9812 26.2015C35.5159 25.6758 34.2598 25.0449 33.2132 23.9935C32.3758 23.1524 31.7478 21.8908 31.7478 20.7343C31.7478 18.5264 33.5272 16.8441 36.0392 15.7928C36.8765 15.3722 37.9232 15.1619 38.9699 15.0568C39.3886 15.0568 39.8073 14.9517 40.2259 14.9517H98.1074C98.7355 14.9517 99.2588 15.0568 99.7821 15.1619C100.201 15.2671 100.619 15.3722 101.038 15.5825C104.074 16.8441 106.062 19.5777 106.062 22.9422Z" fill="white" fill-opacity="0.03" stroke="#534E71" stroke-width="2" stroke-miterlimit="10"/>
<path d="M113.494 33.456V85.0789C113.494 88.6536 110.668 91.4923 107.109 91.4923H45.4595C40.3308 91.4923 36.3534 89.0742 33.8413 87.0765C32.69 86.1303 31.9573 84.6583 31.9573 83.1864C31.9573 82.4504 31.9573 81.7145 31.9573 80.9785C31.9573 79.9271 31.9573 78.6655 31.9573 77.4038C31.9573 71.5161 31.9573 63.6307 31.8526 55.6402C31.8526 54.4837 31.8526 53.3272 31.8526 52.0655C31.8526 47.86 31.8526 43.6544 31.748 39.6592C31.748 38.5027 31.748 37.3461 31.748 36.0845C31.748 28.1991 31.6433 22.3114 31.6433 20.9446C31.6433 23.2576 33.8413 25.3604 36.7721 26.2015C36.8767 26.2015 36.9814 26.3066 37.0861 26.3066C38.1327 26.622 39.3888 26.8323 40.5401 26.8323L101.562 27.1477H105.958H107.004C110.668 27.0426 113.494 29.8813 113.494 33.456Z" fill="white" fill-opacity="0.03" stroke="#534E71" stroke-width="2" stroke-miterlimit="10"/>
<path d="M113.494 50.7817V52.6742C113.389 52.6742 113.284 52.6742 113.075 52.6742H100.515C98.3168 52.6742 96.4328 53.5153 95.0721 54.8821C93.8161 56.1438 92.8741 58.0363 92.7694 60.0339C92.7694 60.139 92.7694 60.3493 92.7694 60.4545C92.7694 64.7651 96.2235 68.2347 100.515 68.2347H113.075C113.703 68.2347 114.226 68.0244 114.436 67.709C114.54 67.6039 114.645 67.3936 114.645 67.2884V51.728C114.645 51.2023 114.122 50.8869 113.494 50.7817Z" fill="white" fill-opacity="0.03" stroke="#48425E" stroke-width="2" stroke-miterlimit="10"/>
<path d="M100.787 64.5036C102.985 64.5036 104.818 62.6632 104.818 60.4546C104.818 58.246 102.985 56.4055 100.787 56.4055C98.588 56.4055 96.7557 58.246 96.7557 60.4546C96.7557 62.6632 98.588 64.5036 100.787 64.5036Z" stroke="#595270" stroke-width="2" stroke-miterlimit="10"/>
<path d="M87.6363 74.1C87.2365 74.1 86.8367 73.9395 86.5168 73.5785L79.84 66.879L79.6001 67.0395C77.4412 68.6441 74.9224 69.4866 72.3636 69.4866C69.285 69.4866 66.2065 68.243 63.9276 66.0767C61.5287 63.79 60.2094 60.7011 60.2094 57.3313C60.2094 50.6319 65.6468 45.176 72.3236 45.176C76.8814 45.176 80.8795 47.583 83.0385 51.6749C85.1575 55.7266 84.8776 60.4604 82.2789 64.2714L82.1189 64.5121L88.8357 71.2517C89.5154 71.9337 89.3555 72.6157 89.2355 72.9767C88.9157 73.6186 88.276 74.1 87.6363 74.1ZM72.3236 48.5057C67.4459 48.5057 63.5278 52.4772 63.5278 57.3313C63.5278 62.8674 68.0456 66.197 72.4435 66.197C75.1223 66.197 77.5611 64.9935 79.2803 62.8273C81.3993 60.1796 81.7591 56.6092 80.2798 53.5202C78.7605 50.4313 75.722 48.5057 72.3236 48.5057Z" fill="#47415F"/>
<path d="M71.4445 59.5498C71.4002 59.3709 71.4002 59.1921 71.4002 58.9685C71.4002 58.2082 71.7102 57.5374 72.5075 56.9561L73.1718 56.4642C73.5705 56.1511 73.7476 55.7934 73.7476 55.3462C73.7476 54.7201 73.3047 54.094 72.3746 54.094C71.4002 54.094 70.9573 54.899 70.9573 55.6592C70.9573 55.8381 70.9573 55.9723 71.0016 56.1064L69.2299 56.0617C69.1856 55.8828 69.1414 55.6592 69.1414 55.4356C69.1414 53.9152 70.2486 52.4841 72.3303 52.4841C74.4563 52.4841 75.6079 53.8704 75.6079 55.2567C75.6079 56.3747 75.0321 57.135 74.2348 57.7163L73.659 58.1188C73.1718 58.4766 72.9061 58.9237 72.9061 59.4604V59.5498H71.4445ZM72.1974 60.4442C72.8175 60.4442 73.3047 60.9361 73.3047 61.5622C73.3047 62.1883 72.8175 62.6802 72.1974 62.6802C71.5774 62.6802 71.0902 62.1883 71.0902 61.5622C71.1345 60.9808 71.5774 60.4442 72.1974 60.4442Z" fill="#595270"/>
</g>
<defs>
<clipPath id="clip0_7585_1542">
<rect width="150" height="106" fill="white"/>
</clipPath>
</defs>
</svg>
