<svg width="150" height="106" viewBox="0 0 150 106" fill="none" xmlns="http://www.w3.org/2000/svg">
  <!-- Wallet body -->
  <path d="M30 28h90c6 0 12 5 12 12v36c0 6-6 12-12 12H30c-6 0-12-6-12-12V40c0-7 6-12 12-12z" stroke="currentColor" stroke-width="2" stroke-linecap="round" stroke-linejoin="round" fill="none" opacity="0.5"/>
  <path d="M30 28v12h90V40c0-7-6-12-12-12H30z" stroke="currentColor" stroke-width="1.5" fill="none" opacity="0.4"/>
  <line x1="30" y1="52" x2="120" y2="52" stroke="currentColor" stroke-width="1.5" opacity="0.45"/>
  <!-- Question mark (left) -->
  <circle cx="52" cy="68" r="12" stroke="currentColor" stroke-width="2" fill="none" opacity="0.5"/>
  <path d="M52 52v4a4 4 0 0 1 4 4" stroke="currentColor" stroke-width="1.5" stroke-linecap="round" fill="none" opacity="0.5"/>
  <circle cx="52" cy="82" r="2" fill="currentColor" opacity="0.5"/>
  <!-- Dollar (right) -->
  <path d="M98 56v20M94 60h8a3 3 0 0 1 3 3v0a3 3 0 0 1-3 3h-8M102 68h8a3 3 0 0 1 3 3v0a3 3 0 0 1-3 3h-8" stroke="currentColor" stroke-width="1.5" stroke-linecap="round" stroke-linejoin="round" fill="none" opacity="0.5"/>
</svg>
